<svg width="1125" height="229" viewBox="0 0 1125 229" fill="none" xmlns="http://www.w3.org/2000/svg">
<path d="M310.584 42.56C308.963 39.5733 306.616 37.312 303.544 35.776C300.557 34.1547 297.016 33.344 292.92 33.344C285.837 33.344 280.163 35.6907 275.896 40.384C271.629 44.992 269.496 51.1787 269.496 58.944C269.496 67.2213 271.715 73.7067 276.152 78.4C280.675 83.008 286.861 85.312 294.712 85.312C300.088 85.312 304.611 83.9467 308.28 81.216C312.035 78.4853 314.765 74.56 316.472 69.44H288.696V53.312H336.312V73.664C334.691 79.1253 331.917 84.2027 327.992 88.896C324.152 93.5893 319.245 97.3867 313.272 100.288C307.299 103.189 300.557 104.64 293.048 104.64C284.173 104.64 276.237 102.72 269.24 98.88C262.328 94.9547 256.909 89.536 252.984 82.624C249.144 75.712 247.224 67.8187 247.224 58.944C247.224 50.0693 249.144 42.176 252.984 35.264C256.909 28.2667 262.328 22.848 269.24 19.008C276.152 15.0827 284.045 13.12 292.92 13.12C303.672 13.12 312.717 15.7227 320.056 20.928C327.48 26.1333 332.387 33.344 334.776 42.56H310.584ZM344.724 58.944C344.724 50.0693 346.644 42.176 350.484 35.264C354.324 28.2667 359.657 22.848 366.484 19.008C373.396 15.0827 381.204 13.12 389.908 13.12C400.575 13.12 409.705 15.936 417.3 21.568C424.895 27.2 429.972 34.88 432.532 44.608H408.468C406.676 40.8533 404.116 37.9947 400.788 36.032C397.545 34.0693 393.833 33.088 389.652 33.088C382.911 33.088 377.449 35.4347 373.268 40.128C369.087 44.8213 366.996 51.0933 366.996 58.944C366.996 66.7947 369.087 73.0667 373.268 77.76C377.449 82.4533 382.911 84.8 389.652 84.8C393.833 84.8 397.545 83.8187 400.788 81.856C404.116 79.8933 406.676 77.0347 408.468 73.28H432.532C429.972 83.008 424.895 90.688 417.3 96.32C409.705 101.867 400.575 104.64 389.908 104.64C381.204 104.64 373.396 102.72 366.484 98.88C359.657 94.9547 354.324 89.536 350.484 82.624C346.644 75.712 344.724 67.8187 344.724 58.944ZM500.336 57.92C505.541 59.0293 509.723 61.632 512.88 65.728C516.037 69.7387 517.616 74.3467 517.616 79.552C517.616 87.0613 514.971 93.0347 509.68 97.472C504.475 101.824 497.179 104 487.792 104H445.936V14.144H486.384C495.515 14.144 502.64 16.2347 507.76 20.416C512.965 24.5973 515.568 30.272 515.568 37.44C515.568 42.7307 514.16 47.1253 511.344 50.624C508.613 54.1227 504.944 56.5547 500.336 57.92ZM467.824 50.496H482.16C485.744 50.496 488.475 49.728 490.352 48.192C492.315 46.5707 493.296 44.224 493.296 41.152C493.296 38.08 492.315 35.7333 490.352 34.112C488.475 32.4907 485.744 31.68 482.16 31.68H467.824V50.496ZM483.952 86.336C487.621 86.336 490.437 85.5253 492.4 83.904C494.448 82.1973 495.472 79.7653 495.472 76.608C495.472 73.4507 494.405 70.976 492.272 69.184C490.224 67.392 487.365 66.496 483.696 66.496H467.824V86.336H483.952ZM552.199 31.68V49.856H581.511V66.752H552.199V86.464H585.351V104H530.311V14.144H585.351V31.68H552.199ZM658.057 14.144V31.68H621.449V50.624H648.841V67.648H621.449V104H599.561V14.144H658.057Z" fill="#054E85" style="fill:#054E85;fill:color(display-p3 0.0196 0.3059 0.5216);fill-opacity:1;"/>
<path d="M733.091 22C732.716 20.8523 732.222 19.8239 731.608 18.9148C731.006 17.9943 730.284 17.2102 729.443 16.5625C728.614 15.9148 727.67 15.4205 726.614 15.0795C725.557 14.7386 724.398 14.5682 723.136 14.5682C721.068 14.5682 719.188 15.1023 717.494 16.1705C715.801 17.2386 714.455 18.8125 713.455 20.892C712.455 22.9716 711.955 25.5227 711.955 28.5455C711.955 31.5682 712.46 34.1193 713.472 36.1989C714.483 38.2784 715.852 39.8523 717.58 40.9205C719.307 41.9886 721.25 42.5227 723.409 42.5227C725.409 42.5227 727.17 42.0966 728.693 41.2443C730.227 40.3807 731.42 39.1648 732.273 37.5966C733.136 36.017 733.568 34.1591 733.568 32.0227L734.864 32.2955H724.364V28.5455H737.659V32.2955C737.659 35.1705 737.045 37.6705 735.818 39.7955C734.602 41.9205 732.92 43.5682 730.773 44.7386C728.636 45.8977 726.182 46.4773 723.409 46.4773C720.318 46.4773 717.602 45.75 715.261 44.2955C712.932 42.8409 711.114 40.7727 709.807 38.0909C708.511 35.4091 707.864 32.2273 707.864 28.5455C707.864 25.7841 708.233 23.3011 708.972 21.0966C709.722 18.8807 710.778 16.9943 712.142 15.4375C713.506 13.8807 715.119 12.6875 716.983 11.858C718.847 11.0284 720.898 10.6136 723.136 10.6136C724.977 10.6136 726.693 10.892 728.284 11.4489C729.886 11.9943 731.312 12.7727 732.562 13.7841C733.824 14.7841 734.875 15.983 735.716 17.3807C736.557 18.767 737.136 20.3068 737.455 22H733.091ZM744.899 46V11.0909H749.126V42.25H765.354V46H744.899ZM799.994 28.5455C799.994 32.2273 799.33 35.4091 798 38.0909C796.67 40.7727 794.847 42.8409 792.528 44.2955C790.21 45.75 787.563 46.4773 784.585 46.4773C781.608 46.4773 778.96 45.75 776.642 44.2955C774.324 42.8409 772.5 40.7727 771.17 38.0909C769.841 35.4091 769.176 32.2273 769.176 28.5455C769.176 24.8636 769.841 21.6818 771.17 19C772.5 16.3182 774.324 14.25 776.642 12.7955C778.96 11.3409 781.608 10.6136 784.585 10.6136C787.563 10.6136 790.21 11.3409 792.528 12.7955C794.847 14.25 796.67 16.3182 798 19C799.33 21.6818 799.994 24.8636 799.994 28.5455ZM795.903 28.5455C795.903 25.5227 795.398 22.9716 794.386 20.892C793.386 18.8125 792.028 17.2386 790.312 16.1705C788.608 15.1023 786.699 14.5682 784.585 14.5682C782.472 14.5682 780.557 15.1023 778.841 16.1705C777.136 17.2386 775.778 18.8125 774.767 20.892C773.767 22.9716 773.267 25.5227 773.267 28.5455C773.267 31.5682 773.767 34.1193 774.767 36.1989C775.778 38.2784 777.136 39.8523 778.841 40.9205C780.557 41.9886 782.472 42.5227 784.585 42.5227C786.699 42.5227 788.608 41.9886 790.312 40.9205C792.028 39.8523 793.386 38.2784 794.386 36.1989C795.398 34.1193 795.903 31.5682 795.903 28.5455ZM807.102 46V11.0909H819.307C821.739 11.0909 823.744 11.5114 825.324 12.3523C826.903 13.1818 828.08 14.3011 828.852 15.7102C829.625 17.108 830.011 18.6591 830.011 20.3636C830.011 21.8636 829.744 23.1023 829.21 24.0795C828.688 25.0568 827.994 25.8295 827.131 26.3977C826.278 26.9659 825.352 27.3864 824.352 27.6591V28C825.42 28.0682 826.494 28.4432 827.574 29.125C828.653 29.8068 829.557 30.7841 830.284 32.0568C831.011 33.3295 831.375 34.8864 831.375 36.7273C831.375 38.4773 830.977 40.0511 830.182 41.4489C829.386 42.8466 828.131 43.9545 826.415 44.7727C824.699 45.5909 822.466 46 819.716 46H807.102ZM811.33 42.25H819.716C822.477 42.25 824.438 41.7159 825.597 40.6477C826.767 39.5682 827.352 38.2614 827.352 36.7273C827.352 35.5455 827.051 34.4545 826.449 33.4545C825.847 32.4432 824.989 31.6364 823.875 31.0341C822.761 30.4205 821.443 30.1136 819.92 30.1136H811.33V42.25ZM811.33 26.4318H819.17C820.443 26.4318 821.591 26.1818 822.614 25.6818C823.648 25.1818 824.466 24.4773 825.068 23.5682C825.682 22.6591 825.989 21.5909 825.989 20.3636C825.989 18.8295 825.455 17.5284 824.386 16.4602C823.318 15.3807 821.625 14.8409 819.307 14.8409H811.33V26.4318ZM839.753 46H835.321L848.139 11.0909H852.503L865.321 46H860.889L850.457 16.6136H850.185L839.753 46ZM841.389 32.3636H859.253V36.1136H841.389V32.3636ZM870.759 46V11.0909H874.986V42.25H891.213V46H870.759ZM737.318 80H733.091C732.841 78.7841 732.403 77.7159 731.778 76.7955C731.165 75.875 730.415 75.1023 729.528 74.4773C728.653 73.8409 727.682 73.3636 726.614 73.0455C725.545 72.7273 724.432 72.5682 723.273 72.5682C721.159 72.5682 719.244 73.1023 717.528 74.1705C715.824 75.2386 714.466 76.8125 713.455 78.892C712.455 80.9716 711.955 83.5227 711.955 86.5455C711.955 89.5682 712.455 92.1193 713.455 94.1989C714.466 96.2784 715.824 97.8523 717.528 98.9205C719.244 99.9886 721.159 100.523 723.273 100.523C724.432 100.523 725.545 100.364 726.614 100.045C727.682 99.7273 728.653 99.2557 729.528 98.6307C730.415 97.9943 731.165 97.2159 731.778 96.2955C732.403 95.3636 732.841 94.2955 733.091 93.0909H737.318C737 94.875 736.42 96.4716 735.58 97.8807C734.739 99.2898 733.693 100.489 732.443 101.477C731.193 102.455 729.79 103.199 728.233 103.71C726.688 104.222 725.034 104.477 723.273 104.477C720.295 104.477 717.648 103.75 715.33 102.295C713.011 100.841 711.188 98.7727 709.858 96.0909C708.528 93.4091 707.864 90.2273 707.864 86.5455C707.864 82.8636 708.528 79.6818 709.858 77C711.188 74.3182 713.011 72.25 715.33 70.7955C717.648 69.3409 720.295 68.6136 723.273 68.6136C725.034 68.6136 726.688 68.8693 728.233 69.3807C729.79 69.892 731.193 70.642 732.443 71.6307C733.693 72.608 734.739 73.8011 735.58 75.2102C736.42 76.608 737 78.2045 737.318 80ZM744.149 104V69.0909H755.945C758.672 69.0909 760.911 69.5568 762.661 70.4886C764.411 71.4091 765.706 72.6761 766.547 74.2898C767.388 75.9034 767.808 77.7386 767.808 79.7955C767.808 81.8523 767.388 83.6761 766.547 85.267C765.706 86.858 764.416 88.108 762.678 89.017C760.939 89.9148 758.717 90.3636 756.013 90.3636H746.467V86.5455H755.876C757.74 86.5455 759.24 86.2727 760.376 85.7273C761.524 85.1818 762.354 84.4091 762.865 83.4091C763.388 82.3977 763.649 81.1932 763.649 79.7955C763.649 78.3977 763.388 77.1761 762.865 76.1307C762.342 75.0852 761.507 74.2784 760.359 73.7102C759.212 73.1307 757.695 72.8409 755.808 72.8409H748.376V104H744.149ZM760.581 88.3182L769.172 104H764.263L755.808 88.3182H760.581ZM804.307 86.5455C804.307 90.2273 803.642 93.4091 802.312 96.0909C800.983 98.7727 799.159 100.841 796.841 102.295C794.523 103.75 791.875 104.477 788.898 104.477C785.92 104.477 783.273 103.75 780.955 102.295C778.636 100.841 776.813 98.7727 775.483 96.0909C774.153 93.4091 773.489 90.2273 773.489 86.5455C773.489 82.8636 774.153 79.6818 775.483 77C776.813 74.3182 778.636 72.25 780.955 70.7955C783.273 69.3409 785.92 68.6136 788.898 68.6136C791.875 68.6136 794.523 69.3409 796.841 70.7955C799.159 72.25 800.983 74.3182 802.312 77C803.642 79.6818 804.307 82.8636 804.307 86.5455ZM800.216 86.5455C800.216 83.5227 799.71 80.9716 798.699 78.892C797.699 76.8125 796.341 75.2386 794.625 74.1705C792.92 73.1023 791.011 72.5682 788.898 72.5682C786.784 72.5682 784.869 73.1023 783.153 74.1705C781.449 75.2386 780.091 76.8125 779.08 78.892C778.08 80.9716 777.58 83.5227 777.58 86.5455C777.58 89.5682 778.08 92.1193 779.08 94.1989C780.091 96.2784 781.449 97.8523 783.153 98.9205C784.869 99.9886 786.784 100.523 788.898 100.523C791.011 100.523 792.92 99.9886 794.625 98.9205C796.341 97.8523 797.699 96.2784 798.699 94.1989C799.71 92.1193 800.216 89.5682 800.216 86.5455ZM830.506 77.8182C830.301 76.0909 829.472 74.75 828.017 73.7955C826.563 72.8409 824.778 72.3636 822.665 72.3636C821.119 72.3636 819.767 72.6136 818.608 73.1136C817.46 73.6136 816.563 74.3011 815.915 75.1761C815.278 76.0511 814.96 77.0455 814.96 78.1591C814.96 79.0909 815.182 79.892 815.625 80.5625C816.08 81.2216 816.659 81.7727 817.364 82.2159C818.068 82.6477 818.807 83.0057 819.58 83.2898C820.352 83.5625 821.062 83.7841 821.71 83.9545L825.256 84.9091C826.165 85.1477 827.176 85.4773 828.29 85.8977C829.415 86.3182 830.489 86.892 831.511 87.6193C832.545 88.3352 833.398 89.2557 834.068 90.3807C834.739 91.5057 835.074 92.8864 835.074 94.5227C835.074 96.4091 834.58 98.1136 833.591 99.6364C832.614 101.159 831.182 102.369 829.295 103.267C827.42 104.165 825.142 104.614 822.46 104.614C819.96 104.614 817.795 104.21 815.966 103.403C814.148 102.597 812.716 101.472 811.67 100.028C810.636 98.5852 810.051 96.9091 809.915 95H814.278C814.392 96.3182 814.835 97.4091 815.608 98.2727C816.392 99.125 817.381 99.7614 818.574 100.182C819.778 100.591 821.074 100.795 822.46 100.795C824.074 100.795 825.523 100.534 826.807 100.011C828.091 99.4773 829.108 98.7386 829.858 97.7955C830.608 96.8409 830.983 95.7273 830.983 94.4545C830.983 93.2955 830.659 92.3523 830.011 91.625C829.364 90.8977 828.511 90.3068 827.455 89.8523C826.398 89.3977 825.256 89 824.028 88.6591L819.733 87.4318C817.006 86.6477 814.847 85.5284 813.256 84.0739C811.665 82.6193 810.869 80.7159 810.869 78.3636C810.869 76.4091 811.398 74.7045 812.455 73.25C813.523 71.7841 814.955 70.6477 816.75 69.8409C818.557 69.0227 820.574 68.6136 822.801 68.6136C825.051 68.6136 827.051 69.017 828.801 69.8239C830.551 70.6193 831.938 71.7102 832.96 73.0966C833.994 74.483 834.54 76.0568 834.597 77.8182H830.506ZM861.115 77.8182C860.911 76.0909 860.081 74.75 858.626 73.7955C857.172 72.8409 855.388 72.3636 853.274 72.3636C851.729 72.3636 850.376 72.6136 849.217 73.1136C848.07 73.6136 847.172 74.3011 846.524 75.1761C845.888 76.0511 845.57 77.0455 845.57 78.1591C845.57 79.0909 845.791 79.892 846.234 80.5625C846.689 81.2216 847.268 81.7727 847.973 82.2159C848.678 82.6477 849.416 83.0057 850.189 83.2898C850.962 83.5625 851.672 83.7841 852.32 83.9545L855.865 84.9091C856.774 85.1477 857.786 85.4773 858.899 85.8977C860.024 86.3182 861.098 86.892 862.121 87.6193C863.155 88.3352 864.007 89.2557 864.678 90.3807C865.348 91.5057 865.683 92.8864 865.683 94.5227C865.683 96.4091 865.189 98.1136 864.2 99.6364C863.223 101.159 861.791 102.369 859.905 103.267C858.03 104.165 855.751 104.614 853.07 104.614C850.57 104.614 848.405 104.21 846.575 103.403C844.757 102.597 843.325 101.472 842.28 100.028C841.246 98.5852 840.661 96.9091 840.524 95H844.888C845.001 96.3182 845.445 97.4091 846.217 98.2727C847.001 99.125 847.99 99.7614 849.183 100.182C850.388 100.591 851.683 100.795 853.07 100.795C854.683 100.795 856.132 100.534 857.416 100.011C858.7 99.4773 859.717 98.7386 860.467 97.7955C861.217 96.8409 861.592 95.7273 861.592 94.4545C861.592 93.2955 861.268 92.3523 860.621 91.625C859.973 90.8977 859.121 90.3068 858.064 89.8523C857.007 89.3977 855.865 89 854.638 88.6591L850.342 87.4318C847.615 86.6477 845.456 85.5284 843.865 84.0739C842.274 82.6193 841.479 80.7159 841.479 78.3636C841.479 76.4091 842.007 74.7045 843.064 73.25C844.132 71.7841 845.564 70.6477 847.359 69.8409C849.166 69.0227 851.183 68.6136 853.411 68.6136C855.661 68.6136 857.661 69.017 859.411 69.8239C861.161 70.6193 862.547 71.7102 863.57 73.0966C864.604 74.483 865.149 76.0568 865.206 77.8182H861.115ZM887.088 84.6705V88.4205H871.815V84.6705H887.088ZM894.712 104V69.0909H906.916C909.348 69.0909 911.354 69.5114 912.933 70.3523C914.513 71.1818 915.689 72.3011 916.462 73.7102C917.234 75.108 917.621 76.6591 917.621 78.3636C917.621 79.8636 917.354 81.1023 916.82 82.0795C916.297 83.0568 915.604 83.8295 914.74 84.3977C913.888 84.9659 912.962 85.3864 911.962 85.6591V86C913.03 86.0682 914.104 86.4432 915.183 87.125C916.263 87.8068 917.166 88.7841 917.893 90.0568C918.621 91.3295 918.984 92.8864 918.984 94.7273C918.984 96.4773 918.587 98.0511 917.791 99.4489C916.996 100.847 915.74 101.955 914.024 102.773C912.308 103.591 910.075 104 907.325 104H894.712ZM898.939 100.25H907.325C910.087 100.25 912.047 99.7159 913.206 98.6477C914.376 97.5682 914.962 96.2614 914.962 94.7273C914.962 93.5455 914.661 92.4545 914.058 91.4545C913.456 90.4432 912.598 89.6364 911.484 89.0341C910.371 88.4205 909.053 88.1136 907.53 88.1136H898.939V100.25ZM898.939 84.4318H906.78C908.053 84.4318 909.2 84.1818 910.223 83.6818C911.257 83.1818 912.075 82.4773 912.678 81.5682C913.291 80.6591 913.598 79.5909 913.598 78.3636C913.598 76.8295 913.064 75.5284 911.996 74.4602C910.928 73.3807 909.234 72.8409 906.916 72.8409H898.939V84.4318ZM955.385 86.5455C955.385 90.2273 954.72 93.4091 953.391 96.0909C952.061 98.7727 950.237 100.841 947.919 102.295C945.601 103.75 942.953 104.477 939.976 104.477C936.999 104.477 934.351 103.75 932.033 102.295C929.714 100.841 927.891 98.7727 926.561 96.0909C925.232 93.4091 924.567 90.2273 924.567 86.5455C924.567 82.8636 925.232 79.6818 926.561 77C927.891 74.3182 929.714 72.25 932.033 70.7955C934.351 69.3409 936.999 68.6136 939.976 68.6136C942.953 68.6136 945.601 69.3409 947.919 70.7955C950.237 72.25 952.061 74.3182 953.391 77C954.72 79.6818 955.385 82.8636 955.385 86.5455ZM951.294 86.5455C951.294 83.5227 950.788 80.9716 949.777 78.892C948.777 76.8125 947.419 75.2386 945.703 74.1705C943.999 73.1023 942.089 72.5682 939.976 72.5682C937.862 72.5682 935.947 73.1023 934.232 74.1705C932.527 75.2386 931.169 76.8125 930.158 78.892C929.158 80.9716 928.658 83.5227 928.658 86.5455C928.658 89.5682 929.158 92.1193 930.158 94.1989C931.169 96.2784 932.527 97.8523 934.232 98.9205C935.947 99.9886 937.862 100.523 939.976 100.523C942.089 100.523 943.999 99.9886 945.703 98.9205C947.419 97.8523 948.777 96.2784 949.777 94.1989C950.788 92.1193 951.294 89.5682 951.294 86.5455ZM962.493 104V69.0909H974.288C977.016 69.0909 979.254 69.5568 981.004 70.4886C982.754 71.4091 984.05 72.6761 984.891 74.2898C985.732 75.9034 986.152 77.7386 986.152 79.7955C986.152 81.8523 985.732 83.6761 984.891 85.267C984.05 86.858 982.76 88.108 981.021 89.017C979.283 89.9148 977.061 90.3636 974.357 90.3636H964.811V86.5455H974.22C976.084 86.5455 977.584 86.2727 978.72 85.7273C979.868 85.1818 980.697 84.4091 981.209 83.4091C981.732 82.3977 981.993 81.1932 981.993 79.7955C981.993 78.3977 981.732 77.1761 981.209 76.1307C980.686 75.0852 979.851 74.2784 978.703 73.7102C977.555 73.1307 976.038 72.8409 974.152 72.8409H966.72V104H962.493ZM978.925 88.3182L987.516 104H982.607L974.152 88.3182H978.925ZM1003.97 104H993.196V69.0909H1004.45C1007.83 69.0909 1010.73 69.7898 1013.14 71.1875C1015.55 72.5739 1017.39 74.5682 1018.68 77.1705C1019.96 79.7614 1020.61 82.8636 1020.61 86.4773C1020.61 90.1136 1019.96 93.2443 1018.66 95.8693C1017.37 98.483 1015.48 100.494 1013 101.903C1010.53 103.301 1007.51 104 1003.97 104ZM997.423 100.25H1003.7C1006.58 100.25 1008.97 99.6932 1010.87 98.5795C1012.77 97.4659 1014.18 95.8807 1015.12 93.8239C1016.05 91.767 1016.51 89.3182 1016.51 86.4773C1016.51 83.6591 1016.05 81.233 1015.13 79.1989C1014.21 77.1534 1012.84 75.5852 1011.01 74.4943C1009.18 73.392 1006.9 72.8409 1004.17 72.8409H997.423V100.25ZM1027.7 104V69.0909H1048.76V72.8409H1031.92V84.6364H1047.67V88.3864H1031.92V100.25H1049.04V104H1027.7ZM1056.38 104V69.0909H1068.18C1070.91 69.0909 1073.14 69.5568 1074.89 70.4886C1076.64 71.4091 1077.94 72.6761 1078.78 74.2898C1079.62 75.9034 1080.04 77.7386 1080.04 79.7955C1080.04 81.8523 1079.62 83.6761 1078.78 85.267C1077.94 86.858 1076.65 88.108 1074.91 89.017C1073.17 89.9148 1070.95 90.3636 1068.25 90.3636H1058.7V86.5455H1068.11C1069.97 86.5455 1071.47 86.2727 1072.61 85.7273C1073.76 85.1818 1074.59 84.4091 1075.1 83.4091C1075.62 82.3977 1075.88 81.1932 1075.88 79.7955C1075.88 78.3977 1075.62 77.1761 1075.1 76.1307C1074.58 75.0852 1073.74 74.2784 1072.59 73.7102C1071.45 73.1307 1069.93 72.8409 1068.04 72.8409H1060.61V104H1056.38ZM1072.82 88.3182L1081.41 104H1076.5L1068.04 88.3182H1072.82ZM709.227 162V127.091H730.295V130.841H713.455V142.636H729.205V146.386H713.455V158.25H730.568V162H709.227ZM752.369 142.67V146.42H737.097V142.67H752.369ZM788.084 138H783.857C783.607 136.784 783.169 135.716 782.544 134.795C781.93 133.875 781.18 133.102 780.294 132.477C779.419 131.841 778.447 131.364 777.379 131.045C776.311 130.727 775.197 130.568 774.038 130.568C771.925 130.568 770.01 131.102 768.294 132.17C766.589 133.239 765.232 134.812 764.22 136.892C763.22 138.972 762.72 141.523 762.72 144.545C762.72 147.568 763.22 150.119 764.22 152.199C765.232 154.278 766.589 155.852 768.294 156.92C770.01 157.989 771.925 158.523 774.038 158.523C775.197 158.523 776.311 158.364 777.379 158.045C778.447 157.727 779.419 157.256 780.294 156.631C781.18 155.994 781.93 155.216 782.544 154.295C783.169 153.364 783.607 152.295 783.857 151.091H788.084C787.766 152.875 787.186 154.472 786.345 155.881C785.504 157.29 784.459 158.489 783.209 159.477C781.959 160.455 780.555 161.199 778.999 161.71C777.453 162.222 775.8 162.477 774.038 162.477C771.061 162.477 768.413 161.75 766.095 160.295C763.777 158.841 761.953 156.773 760.624 154.091C759.294 151.409 758.629 148.227 758.629 144.545C758.629 140.864 759.294 137.682 760.624 135C761.953 132.318 763.777 130.25 766.095 128.795C768.413 127.341 771.061 126.614 774.038 126.614C775.8 126.614 777.453 126.869 778.999 127.381C780.555 127.892 781.959 128.642 783.209 129.631C784.459 130.608 785.504 131.801 786.345 133.21C787.186 134.608 787.766 136.205 788.084 138ZM824.369 144.545C824.369 148.227 823.705 151.409 822.375 154.091C821.045 156.773 819.222 158.841 816.903 160.295C814.585 161.75 811.938 162.477 808.96 162.477C805.983 162.477 803.335 161.75 801.017 160.295C798.699 158.841 796.875 156.773 795.545 154.091C794.216 151.409 793.551 148.227 793.551 144.545C793.551 140.864 794.216 137.682 795.545 135C796.875 132.318 798.699 130.25 801.017 128.795C803.335 127.341 805.983 126.614 808.96 126.614C811.938 126.614 814.585 127.341 816.903 128.795C819.222 130.25 821.045 132.318 822.375 135C823.705 137.682 824.369 140.864 824.369 144.545ZM820.278 144.545C820.278 141.523 819.773 138.972 818.761 136.892C817.761 134.812 816.403 133.239 814.688 132.17C812.983 131.102 811.074 130.568 808.96 130.568C806.847 130.568 804.932 131.102 803.216 132.17C801.511 133.239 800.153 134.812 799.142 136.892C798.142 138.972 797.642 141.523 797.642 144.545C797.642 147.568 798.142 150.119 799.142 152.199C800.153 154.278 801.511 155.852 803.216 156.92C804.932 157.989 806.847 158.523 808.96 158.523C811.074 158.523 812.983 157.989 814.688 156.92C816.403 155.852 817.761 154.278 818.761 152.199C819.773 150.119 820.278 147.568 820.278 144.545ZM831.477 127.091H836.523L848.386 156.068H848.795L860.659 127.091H865.705V162H861.75V135.477H861.409L850.5 162H846.682L835.773 135.477H835.432V162H831.477V127.091ZM874.18 127.091H879.226L891.089 156.068H891.499L903.362 127.091H908.408V162H904.453V135.477H904.112L893.203 162H889.385L878.476 135.477H878.135V162H874.18V127.091ZM916.884 162V127.091H937.952V130.841H921.111V142.636H936.861V146.386H921.111V158.25H938.224V162H916.884ZM945.571 162V127.091H957.366C960.094 127.091 962.332 127.557 964.082 128.489C965.832 129.409 967.128 130.676 967.969 132.29C968.81 133.903 969.23 135.739 969.23 137.795C969.23 139.852 968.81 141.676 967.969 143.267C967.128 144.858 965.838 146.108 964.099 147.017C962.361 147.915 960.139 148.364 957.435 148.364H947.889V144.545H957.298C959.162 144.545 960.662 144.273 961.798 143.727C962.946 143.182 963.776 142.409 964.287 141.409C964.81 140.398 965.071 139.193 965.071 137.795C965.071 136.398 964.81 135.176 964.287 134.131C963.764 133.085 962.929 132.278 961.781 131.71C960.634 131.131 959.116 130.841 957.23 130.841H949.798V162H945.571ZM962.003 146.318L970.594 162H965.685L957.23 146.318H962.003ZM1004.37 138H1000.14C999.888 136.784 999.45 135.716 998.825 134.795C998.212 133.875 997.462 133.102 996.575 132.477C995.7 131.841 994.729 131.364 993.661 131.045C992.592 130.727 991.479 130.568 990.32 130.568C988.206 130.568 986.291 131.102 984.575 132.17C982.871 133.239 981.513 134.812 980.501 136.892C979.501 138.972 979.001 141.523 979.001 144.545C979.001 147.568 979.501 150.119 980.501 152.199C981.513 154.278 982.871 155.852 984.575 156.92C986.291 157.989 988.206 158.523 990.32 158.523C991.479 158.523 992.592 158.364 993.661 158.045C994.729 157.727 995.7 157.256 996.575 156.631C997.462 155.994 998.212 155.216 998.825 154.295C999.45 153.364 999.888 152.295 1000.14 151.091H1004.37C1004.05 152.875 1003.47 154.472 1002.63 155.881C1001.79 157.29 1000.74 158.489 999.49 159.477C998.24 160.455 996.837 161.199 995.28 161.71C993.734 162.222 992.081 162.477 990.32 162.477C987.342 162.477 984.695 161.75 982.376 160.295C980.058 158.841 978.234 156.773 976.905 154.091C975.575 151.409 974.911 148.227 974.911 144.545C974.911 140.864 975.575 137.682 976.905 135C978.234 132.318 980.058 130.25 982.376 128.795C984.695 127.341 987.342 126.614 990.32 126.614C992.081 126.614 993.734 126.869 995.28 127.381C996.837 127.892 998.24 128.642 999.49 129.631C1000.74 130.608 1001.79 131.801 1002.63 133.21C1003.47 134.608 1004.05 136.205 1004.37 138ZM1011.2 162V127.091H1032.26V130.841H1015.42V142.636H1031.17V146.386H1015.42V158.25H1032.54V162H1011.2ZM709.227 220V185.091H730.159V188.841H713.455V200.636H728.591V204.386H713.455V220H709.227ZM766.854 202.545C766.854 206.227 766.189 209.409 764.859 212.091C763.53 214.773 761.706 216.841 759.388 218.295C757.07 219.75 754.422 220.477 751.445 220.477C748.467 220.477 745.82 219.75 743.501 218.295C741.183 216.841 739.359 214.773 738.03 212.091C736.7 209.409 736.036 206.227 736.036 202.545C736.036 198.864 736.7 195.682 738.03 193C739.359 190.318 741.183 188.25 743.501 186.795C745.82 185.341 748.467 184.614 751.445 184.614C754.422 184.614 757.07 185.341 759.388 186.795C761.706 188.25 763.53 190.318 764.859 193C766.189 195.682 766.854 198.864 766.854 202.545ZM762.763 202.545C762.763 199.523 762.257 196.972 761.246 194.892C760.246 192.812 758.888 191.239 757.172 190.17C755.467 189.102 753.558 188.568 751.445 188.568C749.331 188.568 747.416 189.102 745.7 190.17C743.996 191.239 742.638 192.812 741.626 194.892C740.626 196.972 740.126 199.523 740.126 202.545C740.126 205.568 740.626 208.119 741.626 210.199C742.638 212.278 743.996 213.852 745.7 214.92C747.416 215.989 749.331 216.523 751.445 216.523C753.558 216.523 755.467 215.989 757.172 214.92C758.888 213.852 760.246 212.278 761.246 210.199C762.257 208.119 762.763 205.568 762.763 202.545ZM773.962 220V185.091H785.757C788.484 185.091 790.723 185.557 792.473 186.489C794.223 187.409 795.518 188.676 796.359 190.29C797.2 191.903 797.621 193.739 797.621 195.795C797.621 197.852 797.2 199.676 796.359 201.267C795.518 202.858 794.229 204.108 792.49 205.017C790.751 205.915 788.53 206.364 785.825 206.364H776.28V202.545H785.689C787.553 202.545 789.053 202.273 790.189 201.727C791.337 201.182 792.166 200.409 792.678 199.409C793.2 198.398 793.462 197.193 793.462 195.795C793.462 194.398 793.2 193.176 792.678 192.131C792.155 191.085 791.32 190.278 790.172 189.71C789.024 189.131 787.507 188.841 785.621 188.841H778.189V220H773.962ZM790.393 204.318L798.984 220H794.075L785.621 204.318H790.393ZM827.574 185.091H831.801V208.205C831.801 210.591 831.239 212.722 830.114 214.597C829 216.46 827.426 217.932 825.392 219.011C823.358 220.08 820.972 220.614 818.233 220.614C815.494 220.614 813.108 220.08 811.074 219.011C809.04 217.932 807.46 216.46 806.335 214.597C805.222 212.722 804.665 210.591 804.665 208.205V185.091H808.892V207.864C808.892 209.568 809.267 211.085 810.017 212.415C810.767 213.733 811.835 214.773 813.222 215.534C814.619 216.284 816.29 216.659 818.233 216.659C820.176 216.659 821.847 216.284 823.244 215.534C824.642 214.773 825.71 213.733 826.449 212.415C827.199 211.085 827.574 209.568 827.574 207.864V185.091ZM840.243 185.091H845.288L857.152 214.068H857.561L869.425 185.091H874.47V220H870.516V193.477H870.175L859.266 220H855.447L844.538 193.477H844.197V220H840.243V185.091Z" fill="#054E85" style="fill:#054E85;fill:color(display-p3 0.0196 0.3059 0.5216);fill-opacity:1;"/>
<path d="M247.992 211.464C250.893 209.16 252.216 208.093 251.96 208.264C260.323 201.352 266.893 195.677 271.672 191.24C276.536 186.803 280.632 182.152 283.96 177.288C287.288 172.424 288.952 167.688 288.952 163.08C288.952 159.581 288.141 156.851 286.52 154.888C284.899 152.925 282.467 151.944 279.224 151.944C275.981 151.944 273.421 153.181 271.544 155.656C269.752 158.045 268.856 161.459 268.856 165.896H247.736C247.907 158.643 249.443 152.584 252.344 147.72C255.331 142.856 259.213 139.272 263.992 136.968C268.856 134.664 274.232 133.512 280.12 133.512C290.275 133.512 297.912 136.115 303.032 141.32C308.237 146.525 310.84 153.309 310.84 161.672C310.84 170.803 307.725 179.293 301.496 187.144C295.267 194.909 287.331 202.504 277.688 209.928H312.248V227.72H247.992V211.464ZM321.885 181C321.885 166.323 324.701 154.76 330.333 146.312C336.05 137.864 345.224 133.64 357.853 133.64C370.482 133.64 379.613 137.864 385.245 146.312C390.962 154.76 393.821 166.323 393.821 181C393.821 195.848 390.962 207.496 385.245 215.944C379.613 224.392 370.482 228.616 357.853 228.616C345.224 228.616 336.05 224.392 330.333 215.944C324.701 207.496 321.885 195.848 321.885 181ZM372.317 181C372.317 172.381 371.378 165.768 369.501 161.16C367.624 156.467 363.741 154.12 357.853 154.12C351.965 154.12 348.082 156.467 346.205 161.16C344.328 165.768 343.389 172.381 343.389 181C343.389 186.803 343.73 191.624 344.413 195.464C345.096 199.219 346.461 202.291 348.509 204.68C350.642 206.984 353.757 208.136 357.853 208.136C361.949 208.136 365.021 206.984 367.069 204.68C369.202 202.291 370.61 199.219 371.293 195.464C371.976 191.624 372.317 186.803 372.317 181ZM404.617 211.464C407.518 209.16 408.841 208.093 408.585 208.264C416.948 201.352 423.518 195.677 428.297 191.24C433.161 186.803 437.257 182.152 440.585 177.288C443.913 172.424 445.577 167.688 445.577 163.08C445.577 159.581 444.766 156.851 443.145 154.888C441.524 152.925 439.092 151.944 435.849 151.944C432.606 151.944 430.046 153.181 428.169 155.656C426.377 158.045 425.481 161.459 425.481 165.896H404.361C404.532 158.643 406.068 152.584 408.969 147.72C411.956 142.856 415.838 139.272 420.617 136.968C425.481 134.664 430.857 133.512 436.745 133.512C446.9 133.512 454.537 136.115 459.657 141.32C464.862 146.525 467.465 153.309 467.465 161.672C467.465 170.803 464.35 179.293 458.121 187.144C451.892 194.909 443.956 202.504 434.313 209.928H468.873V227.72H404.617V211.464ZM544.302 154.632H504.366V172.296C506.073 170.419 508.462 168.883 511.534 167.688C514.606 166.493 517.934 165.896 521.518 165.896C527.918 165.896 533.209 167.347 537.39 170.248C541.657 173.149 544.771 176.904 546.734 181.512C548.697 186.12 549.678 191.112 549.678 196.488C549.678 206.472 546.862 214.408 541.23 220.296C535.598 226.099 527.662 229 517.422 229C510.595 229 504.665 227.848 499.63 225.544C494.595 223.155 490.713 219.869 487.982 215.688C485.251 211.507 483.758 206.685 483.502 201.224H504.878C505.39 203.869 506.627 206.088 508.59 207.88C510.553 209.587 513.241 210.44 516.654 210.44C520.665 210.44 523.651 209.16 525.614 206.6C527.577 204.04 528.558 200.627 528.558 196.36C528.558 192.179 527.534 188.979 525.486 186.76C523.438 184.541 520.451 183.432 516.526 183.432C513.625 183.432 511.235 184.157 509.358 185.608C507.481 186.973 506.243 188.808 505.646 191.112H484.526V135.432H544.302V154.632Z" fill="#054E85" style="fill:#054E85;fill:color(display-p3 0.0196 0.3059 0.5216);fill-opacity:1;"/>
<g clip-path="url(#clip0_2_25)">
<path d="M20.9904 52.6922C10.3372 67.3804 3.21093 84.7932 0.854858 103.688H220.145C217.789 84.7931 210.663 67.3802 200.009 52.6919C199.435 53.0136 198.852 53.3354 198.262 53.6572C177.745 64.8481 147.856 76.0625 110.5 76.0625C73.1437 76.0625 43.2537 64.8481 22.7369 53.6572C22.1472 53.3356 21.565 53.0137 20.9904 52.6922Z" fill="#054E85" style="fill:#054E85;fill:color(display-p3 0.0196 0.3059 0.5216);fill-opacity:1;"/>
<path d="M180.339 31.864C163.145 40.5019 139.472 48.4375 110.5 48.4375C81.5279 48.4375 57.8552 40.5021 40.6607 31.8643C59.6955 16.3219 84.0091 7 110.5 7C136.991 7 161.304 16.3218 180.339 31.864Z" fill="#054E85" style="fill:#054E85;fill:color(display-p3 0.0196 0.3059 0.5216);fill-opacity:1;"/>
<path d="M0.854858 131.312C3.21094 150.207 10.3373 167.62 20.9906 182.308C21.5652 181.986 22.1475 181.665 22.7373 181.343C43.2541 170.152 73.1441 158.938 110.5 158.938C147.856 158.938 177.746 170.152 198.262 181.343C198.853 181.665 199.435 181.986 200.009 182.308C210.663 167.62 217.789 150.207 220.145 131.312H0.854858Z" fill="#054E85" style="fill:#054E85;fill:color(display-p3 0.0196 0.3059 0.5216);fill-opacity:1;"/>
<path d="M110.5 228C84.0093 228 59.6957 218.678 40.6608 203.136C57.8553 194.498 81.5281 186.562 110.5 186.562C139.472 186.562 163.145 194.498 180.339 203.136C161.304 218.678 136.991 228 110.5 228Z" fill="#054E85" style="fill:#054E85;fill:color(display-p3 0.0196 0.3059 0.5216);fill-opacity:1;"/>
</g>
<line x1="684" y1="17" x2="684" y2="221" stroke="#054E85" style="stroke:#054E85;stroke:color(display-p3 0.0196 0.3059 0.5216);stroke-opacity:1;" stroke-width="2"/>
<defs>
<clipPath id="clip0_2_25">
<rect width="221" height="221" fill="white" style="fill:white;fill-opacity:1;" transform="translate(0 7)"/>
</clipPath>
</defs>
</svg>
