<svg width="1020" height="256" viewBox="0 0 1020 256" fill="none" xmlns="http://www.w3.org/2000/svg">
<g clip-path="url(#clip0_29_2)">
<path d="M20.9904 63.1922C10.3372 77.8804 3.21093 95.2932 0.854858 114.188H220.145C217.789 95.2931 210.663 77.8802 200.009 63.1919C199.435 63.5136 198.852 63.8354 198.262 64.1572C177.745 75.3481 147.856 86.5625 110.5 86.5625C73.1437 86.5625 43.2537 75.3481 22.7369 64.1572C22.1472 63.8356 21.565 63.5137 20.9904 63.1922Z" fill="white" style="fill:white;fill-opacity:1;"/>
<path d="M180.339 42.364C163.145 51.0019 139.472 58.9375 110.5 58.9375C81.5279 58.9375 57.8552 51.0021 40.6607 42.3643C59.6956 26.8219 84.0092 17.5 110.5 17.5C136.991 17.5 161.304 26.8218 180.339 42.364Z" fill="white" style="fill:white;fill-opacity:1;"/>
<path d="M0.854858 141.812C3.21094 160.707 10.3373 178.12 20.9906 192.808C21.5652 192.486 22.1475 192.165 22.7373 191.843C43.2541 180.652 73.1441 169.438 110.5 169.438C147.856 169.438 177.746 180.652 198.262 191.843C198.853 192.165 199.435 192.486 200.009 192.808C210.663 178.12 217.789 160.707 220.145 141.812H0.854858Z" fill="white" style="fill:white;fill-opacity:1;"/>
<path d="M110.5 238.5C84.0093 238.5 59.6957 229.178 40.6608 213.636C57.8553 204.998 81.5281 197.062 110.5 197.062C139.472 197.062 163.145 204.998 180.339 213.636C161.304 229.178 136.991 238.5 110.5 238.5Z" fill="white" style="fill:white;fill-opacity:1;"/>
</g>
<path d="M321.812 68.9375V105.625C320.312 107.333 318.021 109.167 314.938 111.125C311.896 113.083 308 114.771 303.25 116.188C298.5 117.562 292.833 118.25 286.25 118.25C280.292 118.25 274.875 117.292 270 115.375C265.125 113.417 260.938 110.562 257.438 106.812C253.938 103.021 251.229 98.3958 249.312 92.9375C247.438 87.4792 246.5 81.2292 246.5 74.1875V68.8125C246.5 61.7708 247.438 55.5208 249.312 50.0625C251.188 44.6042 253.833 40 257.25 36.25C260.667 32.4583 264.729 29.5833 269.438 27.625C274.146 25.6667 279.354 24.6875 285.062 24.6875C293.188 24.6875 299.833 26 305 28.625C310.167 31.2083 314.083 34.7917 316.75 39.375C319.458 43.9583 321.125 49.2292 321.75 55.1875H302.125C301.708 52.1458 300.875 49.5208 299.625 47.3125C298.417 45.1042 296.688 43.4167 294.438 42.25C292.188 41.0417 289.271 40.4375 285.688 40.4375C282.812 40.4375 280.208 41.0417 277.875 42.25C275.583 43.4167 273.646 45.1875 272.062 47.5625C270.479 49.9375 269.271 52.8958 268.438 56.4375C267.604 59.9375 267.188 64.0208 267.188 68.6875V74.1875C267.188 78.8542 267.604 82.9583 268.438 86.5C269.312 90.0417 270.583 93 272.25 95.375C273.917 97.7083 276.021 99.4792 278.562 100.688C281.146 101.896 284.146 102.5 287.562 102.5C290.229 102.5 292.479 102.292 294.312 101.875C296.146 101.417 297.646 100.854 298.812 100.188C299.979 99.4792 300.854 98.8333 301.438 98.25V83.125H285.25V68.9375H321.812ZM388.062 86.5H408.312C407.979 92.75 406.271 98.2708 403.188 103.062C400.146 107.812 395.917 111.542 390.5 114.25C385.083 116.917 378.646 118.25 371.188 118.25C365.229 118.25 359.896 117.229 355.188 115.188C350.479 113.146 346.479 110.229 343.188 106.438C339.938 102.604 337.438 98 335.688 92.625C333.979 87.2083 333.125 81.1042 333.125 74.3125V68.75C333.125 61.9583 334.021 55.8542 335.812 50.4375C337.604 45.0208 340.167 40.3958 343.5 36.5625C346.833 32.7292 350.833 29.7917 355.5 27.75C360.167 25.7083 365.375 24.6875 371.125 24.6875C378.875 24.6875 385.417 26.0833 390.75 28.875C396.083 31.6667 400.208 35.5 403.125 40.375C406.083 45.25 407.854 50.8125 408.438 57.0625H388.125C387.958 53.5208 387.292 50.5417 386.125 48.125C384.958 45.6667 383.167 43.8125 380.75 42.5625C378.333 41.3125 375.125 40.6875 371.125 40.6875C368.208 40.6875 365.646 41.2292 363.438 42.3125C361.271 43.3958 359.458 45.0833 358 47.375C356.583 49.6667 355.521 52.5833 354.812 56.125C354.104 59.625 353.75 63.7917 353.75 68.625V74.3125C353.75 79.1042 354.062 83.25 354.688 86.75C355.312 90.25 356.312 93.1458 357.688 95.4375C359.104 97.7292 360.917 99.4375 363.125 100.562C365.333 101.688 368.021 102.25 371.188 102.25C374.812 102.25 377.833 101.688 380.25 100.562C382.667 99.3958 384.521 97.6458 385.812 95.3125C387.104 92.9792 387.854 90.0417 388.062 86.5ZM456 77.6875H432.625L432.5 64.0625H451.812C455.229 64.0625 458 63.6458 460.125 62.8125C462.292 61.9792 463.875 60.7708 464.875 59.1875C465.875 57.5625 466.375 55.5625 466.375 53.1875C466.375 50.4792 465.875 48.2917 464.875 46.625C463.875 44.9583 462.292 43.75 460.125 43C458 42.2083 455.25 41.8125 451.875 41.8125H440V117H419.625V26H451.875C457.333 26 462.208 26.5 466.5 27.5C470.792 28.5 474.438 30.0417 477.438 32.125C480.479 34.2083 482.792 36.8125 484.375 39.9375C485.958 43.0625 486.75 46.75 486.75 51C486.75 54.7083 485.917 58.1667 484.25 61.375C482.625 64.5833 480 67.1875 476.375 69.1875C472.75 71.1875 467.896 72.2708 461.812 72.4375L456 77.6875ZM455.188 117H427.438L434.812 101.25H455.188C458.312 101.25 460.854 100.75 462.812 99.75C464.771 98.75 466.208 97.3958 467.125 95.6875C468.042 93.9792 468.5 92.0625 468.5 89.9375C468.5 87.4375 468.062 85.2708 467.188 83.4375C466.354 81.6042 465.021 80.1875 463.188 79.1875C461.396 78.1875 459 77.6875 456 77.6875H437.75L437.875 64.0625H460.188L464.938 69.4375C470.729 69.3125 475.354 70.25 478.812 72.25C482.312 74.2083 484.833 76.7917 486.375 80C487.917 83.2083 488.688 86.6042 488.688 90.1875C488.688 96.1042 487.417 101.062 484.875 105.062C482.333 109.021 478.562 112 473.562 114C468.604 116 462.479 117 455.188 117ZM563.75 101.25V117H515.312V101.25H563.75ZM522.25 26V117H501.875V26H522.25ZM557.5 62.625V77.875H515.312V62.625H557.5ZM563.812 26V41.8125H515.312V26H563.812ZM620.938 93C620.938 91.4583 620.708 90.0833 620.25 88.875C619.792 87.625 618.958 86.4792 617.75 85.4375C616.542 84.3958 614.833 83.3542 612.625 82.3125C610.417 81.2292 607.521 80.125 603.938 79C599.854 77.6667 595.958 76.1667 592.25 74.5C588.583 72.7917 585.312 70.8125 582.438 68.5625C579.562 66.3125 577.292 63.6875 575.625 60.6875C574 57.6875 573.188 54.1875 573.188 50.1875C573.188 46.3125 574.042 42.8125 575.75 39.6875C577.458 36.5625 579.854 33.8958 582.938 31.6875C586.021 29.4375 589.646 27.7292 593.812 26.5625C597.979 25.3542 602.562 24.75 607.562 24.75C614.229 24.75 620.083 25.9375 625.125 28.3125C630.208 30.6458 634.167 33.9375 637 38.1875C639.833 42.3958 641.25 47.2917 641.25 52.875H621C621 50.4167 620.479 48.25 619.438 46.375C618.438 44.4583 616.896 42.9583 614.812 41.875C612.771 40.7917 610.208 40.25 607.125 40.25C604.125 40.25 601.604 40.7083 599.562 41.625C597.562 42.5 596.042 43.7083 595 45.25C594 46.7917 593.5 48.4792 593.5 50.3125C593.5 51.7708 593.875 53.1042 594.625 54.3125C595.417 55.4792 596.542 56.5833 598 57.625C599.5 58.625 601.333 59.5833 603.5 60.5C605.667 61.4167 608.146 62.2917 610.938 63.125C615.812 64.6667 620.125 66.375 623.875 68.25C627.667 70.125 630.854 72.25 633.438 74.625C636.021 77 637.958 79.6875 639.25 82.6875C640.583 85.6875 641.25 89.0833 641.25 92.875C641.25 96.9167 640.458 100.5 638.875 103.625C637.333 106.75 635.083 109.417 632.125 111.625C629.208 113.792 625.708 115.438 621.625 116.562C617.542 117.688 612.979 118.25 607.938 118.25C603.354 118.25 598.833 117.667 594.375 116.5C589.917 115.292 585.875 113.458 582.25 111C578.667 108.542 575.792 105.417 573.625 101.625C571.5 97.7917 570.438 93.25 570.438 88H590.812C590.812 90.75 591.208 93.0833 592 95C592.792 96.875 593.917 98.3958 595.375 99.5625C596.875 100.729 598.688 101.562 600.812 102.062C602.938 102.562 605.312 102.812 607.938 102.812C610.979 102.812 613.438 102.396 615.312 101.562C617.229 100.688 618.646 99.5 619.562 98C620.479 96.5 620.938 94.8333 620.938 93Z" fill="white" style="fill:white;fill-opacity:1;"/>
<path d="M309.812 219.812V235H246.938V222.125L276.312 191C279.062 187.833 281.25 185.042 282.875 182.625C284.542 180.208 285.75 178.021 286.5 176.062C287.25 174.062 287.625 172.229 287.625 170.562C287.625 167.854 287.188 165.562 286.312 163.688C285.479 161.812 284.25 160.375 282.625 159.375C281 158.375 279.021 157.875 276.688 157.875C274.188 157.875 272.042 158.521 270.25 159.812C268.458 161.104 267.083 162.896 266.125 165.188C265.167 167.438 264.688 170 264.688 172.875H245.062C245.062 167.333 246.396 162.292 249.062 157.75C251.729 153.167 255.458 149.521 260.25 146.812C265.042 144.062 270.646 142.688 277.062 142.688C283.646 142.688 289.167 143.729 293.625 145.812C298.083 147.896 301.458 150.875 303.75 154.75C306.042 158.625 307.188 163.292 307.188 168.75C307.188 171.833 306.688 174.812 305.688 177.688C304.729 180.562 303.333 183.417 301.5 186.25C299.667 189.083 297.458 191.979 294.875 194.938C292.292 197.854 289.375 200.938 286.125 204.188L272.375 219.812H309.812ZM383 181.375V197.562C383 204.229 382.25 210 380.75 214.875C379.292 219.75 377.167 223.771 374.375 226.938C371.625 230.104 368.333 232.458 364.5 234C360.708 235.5 356.5 236.25 351.875 236.25C348.167 236.25 344.708 235.771 341.5 234.812C338.292 233.854 335.396 232.375 332.812 230.375C330.271 228.333 328.083 225.792 326.25 222.75C324.417 219.708 323 216.083 322 211.875C321.042 207.667 320.562 202.896 320.562 197.562V181.375C320.562 174.625 321.292 168.833 322.75 164C324.25 159.167 326.396 155.167 329.188 152C331.979 148.833 335.271 146.5 339.062 145C342.896 143.5 347.125 142.75 351.75 142.75C355.458 142.75 358.896 143.229 362.062 144.188C365.271 145.146 368.167 146.625 370.75 148.625C373.333 150.625 375.521 153.146 377.312 156.188C379.146 159.229 380.542 162.854 381.5 167.062C382.5 171.229 383 176 383 181.375ZM363.5 200V178.812C363.5 175.688 363.312 172.979 362.938 170.688C362.604 168.354 362.104 166.375 361.438 164.75C360.812 163.125 360.021 161.812 359.062 160.812C358.104 159.812 357 159.083 355.75 158.625C354.542 158.125 353.208 157.875 351.75 157.875C349.917 157.875 348.271 158.25 346.812 159C345.354 159.75 344.125 160.938 343.125 162.562C342.125 164.146 341.354 166.292 340.812 169C340.312 171.667 340.062 174.938 340.062 178.812V200C340.062 203.125 340.229 205.854 340.562 208.188C340.938 210.521 341.438 212.521 342.062 214.188C342.729 215.812 343.542 217.146 344.5 218.188C345.458 219.188 346.562 219.917 347.812 220.375C349.062 220.833 350.417 221.062 351.875 221.062C353.708 221.062 355.333 220.708 356.75 220C358.167 219.25 359.375 218.062 360.375 216.438C361.417 214.771 362.188 212.583 362.688 209.875C363.229 207.167 363.5 203.875 363.5 200ZM457.562 219.812V235H394.688V222.125L424.062 191C426.812 187.833 429 185.042 430.625 182.625C432.292 180.208 433.5 178.021 434.25 176.062C435 174.062 435.375 172.229 435.375 170.562C435.375 167.854 434.938 165.562 434.062 163.688C433.229 161.812 432 160.375 430.375 159.375C428.75 158.375 426.771 157.875 424.438 157.875C421.938 157.875 419.792 158.521 418 159.812C416.208 161.104 414.833 162.896 413.875 165.188C412.917 167.438 412.438 170 412.438 172.875H392.812C392.812 167.333 394.146 162.292 396.812 157.75C399.479 153.167 403.208 149.521 408 146.812C412.792 144.062 418.396 142.688 424.812 142.688C431.396 142.688 436.917 143.729 441.375 145.812C445.833 147.896 449.208 150.875 451.5 154.75C453.792 158.625 454.938 163.292 454.938 168.75C454.938 171.833 454.438 174.812 453.438 177.688C452.479 180.562 451.083 183.417 449.25 186.25C447.417 189.083 445.208 191.979 442.625 194.938C440.042 197.854 437.125 200.938 433.875 204.188L420.125 219.812H457.562ZM486 194L470.5 190.312L475.812 144H527.938V159.438H491.812L489.625 178.625C490.75 177.958 492.521 177.229 494.938 176.438C497.354 175.604 500.062 175.188 503.062 175.188C507.521 175.188 511.479 175.875 514.938 177.25C518.396 178.625 521.312 180.625 523.688 183.25C526.104 185.833 527.917 189.021 529.125 192.812C530.375 196.604 531 200.917 531 205.75C531 209.75 530.375 213.583 529.125 217.25C527.875 220.875 525.958 224.125 523.375 227C520.833 229.833 517.604 232.083 513.688 233.75C509.771 235.417 505.167 236.25 499.875 236.25C495.875 236.25 492 235.646 488.25 234.438C484.5 233.229 481.125 231.479 478.125 229.188C475.167 226.854 472.812 224.021 471.062 220.688C469.354 217.354 468.479 213.604 468.438 209.438H487.938C488.146 211.854 488.75 213.938 489.75 215.688C490.75 217.396 492.104 218.729 493.812 219.688C495.521 220.604 497.5 221.062 499.75 221.062C501.917 221.062 503.75 220.646 505.25 219.812C506.75 218.938 507.938 217.75 508.812 216.25C509.729 214.75 510.396 213 510.812 211C511.229 209 511.438 206.854 511.438 204.562C511.438 202.188 511.167 200.062 510.625 198.188C510.083 196.271 509.25 194.646 508.125 193.312C507 191.938 505.562 190.896 503.812 190.188C502.104 189.438 500.042 189.062 497.625 189.062C494.458 189.062 491.979 189.583 490.188 190.625C488.396 191.667 487 192.792 486 194Z" fill="white" style="fill:white;fill-opacity:1;"/>
<path d="M724.409 51C724.097 50.0436 723.685 49.1866 723.173 48.429C722.671 47.6619 722.07 47.0085 721.369 46.4688C720.678 45.929 719.892 45.517 719.011 45.233C718.131 44.9489 717.165 44.8068 716.114 44.8068C714.39 44.8068 712.823 45.2519 711.412 46.142C710.001 47.0322 708.879 48.3438 708.045 50.0767C707.212 51.8097 706.795 53.9356 706.795 56.4545C706.795 58.9735 707.217 61.0994 708.06 62.8324C708.902 64.5653 710.044 65.8769 711.483 66.767C712.922 67.6572 714.542 68.1023 716.341 68.1023C718.008 68.1023 719.475 67.7472 720.744 67.0369C722.023 66.3172 723.017 65.304 723.727 63.9972C724.447 62.6809 724.807 61.1326 724.807 59.3523L725.886 59.5795H717.136V56.4545H728.216V59.5795C728.216 61.9754 727.705 64.0587 726.682 65.8295C725.669 67.6004 724.267 68.9735 722.477 69.9489C720.697 70.9148 718.652 71.3977 716.341 71.3977C713.765 71.3977 711.502 70.7917 709.551 69.5795C707.61 68.3674 706.095 66.6439 705.006 64.4091C703.926 62.1742 703.386 59.5227 703.386 56.4545C703.386 54.1534 703.694 52.0843 704.31 50.2472C704.935 48.4006 705.815 46.8286 706.952 45.5312C708.088 44.2339 709.433 43.2396 710.986 42.5483C712.539 41.857 714.248 41.5114 716.114 41.5114C717.648 41.5114 719.078 41.7434 720.403 42.2074C721.739 42.6619 722.927 43.3106 723.969 44.1534C725.02 44.9867 725.896 45.9858 726.597 47.1506C727.297 48.3059 727.78 49.589 728.045 51H724.409ZM734.249 71V41.9091H737.772V67.875H751.295V71H734.249ZM780.162 56.4545C780.162 59.5227 779.608 62.1742 778.5 64.4091C777.392 66.6439 775.872 68.3674 773.94 69.5795C772.009 70.7917 769.802 71.3977 767.321 71.3977C764.84 71.3977 762.634 70.7917 760.702 69.5795C758.77 68.3674 757.25 66.6439 756.142 64.4091C755.034 62.1742 754.48 59.5227 754.48 56.4545C754.48 53.3864 755.034 50.7348 756.142 48.5C757.25 46.2652 758.77 44.5417 760.702 43.3295C762.634 42.1174 764.84 41.5114 767.321 41.5114C769.802 41.5114 772.009 42.1174 773.94 43.3295C775.872 44.5417 777.392 46.2652 778.5 48.5C779.608 50.7348 780.162 53.3864 780.162 56.4545ZM776.753 56.4545C776.753 53.9356 776.331 51.8097 775.489 50.0767C774.655 48.3438 773.524 47.0322 772.094 46.142C770.673 45.2519 769.082 44.8068 767.321 44.8068C765.56 44.8068 763.964 45.2519 762.534 46.142C761.114 47.0322 759.982 48.3438 759.139 50.0767C758.306 51.8097 757.889 53.9356 757.889 56.4545C757.889 58.9735 758.306 61.0994 759.139 62.8324C759.982 64.5653 761.114 65.8769 762.534 66.767C763.964 67.6572 765.56 68.1023 767.321 68.1023C769.082 68.1023 770.673 67.6572 772.094 66.767C773.524 65.8769 774.655 64.5653 775.489 62.8324C776.331 61.0994 776.753 58.9735 776.753 56.4545ZM786.085 71V41.9091H796.256C798.282 41.9091 799.954 42.2595 801.27 42.9602C802.586 43.6515 803.566 44.5843 804.21 45.7585C804.854 46.9233 805.176 48.2159 805.176 49.6364C805.176 50.8864 804.954 51.9186 804.509 52.733C804.073 53.5473 803.495 54.1913 802.776 54.6648C802.065 55.1383 801.294 55.4886 800.46 55.7159V56C801.35 56.0568 802.245 56.3693 803.145 56.9375C804.045 57.5057 804.797 58.3201 805.403 59.3807C806.009 60.4413 806.312 61.7386 806.312 63.2727C806.312 64.7311 805.981 66.0426 805.318 67.2074C804.655 68.3722 803.609 69.2955 802.179 69.9773C800.749 70.6591 798.888 71 796.597 71H786.085ZM789.608 67.875H796.597C798.898 67.875 800.531 67.4299 801.497 66.5398C802.473 65.6402 802.96 64.5511 802.96 63.2727C802.96 62.2879 802.709 61.3788 802.207 60.5455C801.705 59.7027 800.991 59.0303 800.062 58.5284C799.134 58.017 798.036 57.7614 796.767 57.7614H789.608V67.875ZM789.608 54.6932H796.142C797.203 54.6932 798.159 54.4848 799.011 54.0682C799.873 53.6515 800.555 53.0644 801.057 52.3068C801.568 51.5492 801.824 50.6591 801.824 49.6364C801.824 48.358 801.379 47.2737 800.489 46.3835C799.598 45.4839 798.188 45.0341 796.256 45.0341H789.608V54.6932ZM813.294 71H809.601L820.283 41.9091H823.919L834.601 71H830.908L822.214 46.5114H821.987L813.294 71ZM814.658 59.6364H829.544V62.7614H814.658V59.6364ZM839.132 71V41.9091H842.655V67.875H856.178V71H839.132ZM727.932 99H724.409C724.201 97.9867 723.836 97.0966 723.315 96.3295C722.804 95.5625 722.179 94.9186 721.44 94.3977C720.711 93.8674 719.902 93.4697 719.011 93.2045C718.121 92.9394 717.193 92.8068 716.227 92.8068C714.466 92.8068 712.87 93.2519 711.44 94.142C710.02 95.0322 708.888 96.3438 708.045 98.0767C707.212 99.8097 706.795 101.936 706.795 104.455C706.795 106.973 707.212 109.099 708.045 110.832C708.888 112.565 710.02 113.877 711.44 114.767C712.87 115.657 714.466 116.102 716.227 116.102C717.193 116.102 718.121 115.97 719.011 115.705C719.902 115.439 720.711 115.046 721.44 114.526C722.179 113.995 722.804 113.347 723.315 112.58C723.836 111.803 724.201 110.913 724.409 109.909H727.932C727.667 111.396 727.184 112.726 726.483 113.901C725.782 115.075 724.911 116.074 723.869 116.898C722.828 117.712 721.658 118.332 720.361 118.759C719.073 119.185 717.695 119.398 716.227 119.398C713.746 119.398 711.54 118.792 709.608 117.58C707.676 116.367 706.156 114.644 705.048 112.409C703.94 110.174 703.386 107.523 703.386 104.455C703.386 101.386 703.94 98.7348 705.048 96.5C706.156 94.2652 707.676 92.5417 709.608 91.3295C711.54 90.1174 713.746 89.5114 716.227 89.5114C717.695 89.5114 719.073 89.7244 720.361 90.1506C721.658 90.5767 722.828 91.2017 723.869 92.0256C724.911 92.84 725.782 93.8343 726.483 95.0085C727.184 96.1733 727.667 97.5038 727.932 99ZM733.624 119V89.9091H743.454C745.727 89.9091 747.592 90.2973 749.05 91.0739C750.509 91.8409 751.588 92.8968 752.289 94.2415C752.99 95.5862 753.34 97.1155 753.34 98.8295C753.34 100.544 752.99 102.063 752.289 103.389C751.588 104.715 750.513 105.757 749.065 106.514C747.616 107.262 745.764 107.636 743.511 107.636H735.556V104.455H743.397C744.95 104.455 746.2 104.227 747.147 103.773C748.103 103.318 748.795 102.674 749.221 101.841C749.656 100.998 749.874 99.9943 749.874 98.8295C749.874 97.6648 749.656 96.6468 749.221 95.7756C748.785 94.9044 748.089 94.232 747.133 93.7585C746.176 93.2756 744.912 93.0341 743.34 93.0341H737.147V119H733.624ZM747.317 105.932L754.477 119H750.386L743.34 105.932H747.317ZM783.756 104.455C783.756 107.523 783.202 110.174 782.094 112.409C780.986 114.644 779.466 116.367 777.534 117.58C775.602 118.792 773.396 119.398 770.915 119.398C768.434 119.398 766.227 118.792 764.295 117.58C762.364 116.367 760.844 114.644 759.736 112.409C758.628 110.174 758.074 107.523 758.074 104.455C758.074 101.386 758.628 98.7348 759.736 96.5C760.844 94.2652 762.364 92.5417 764.295 91.3295C766.227 90.1174 768.434 89.5114 770.915 89.5114C773.396 89.5114 775.602 90.1174 777.534 91.3295C779.466 92.5417 780.986 94.2652 782.094 96.5C783.202 98.7348 783.756 101.386 783.756 104.455ZM780.347 104.455C780.347 101.936 779.925 99.8097 779.082 98.0767C778.249 96.3438 777.117 95.0322 775.688 94.142C774.267 93.2519 772.676 92.8068 770.915 92.8068C769.153 92.8068 767.558 93.2519 766.128 94.142C764.707 95.0322 763.576 96.3438 762.733 98.0767C761.9 99.8097 761.483 101.936 761.483 104.455C761.483 106.973 761.9 109.099 762.733 110.832C763.576 112.565 764.707 113.877 766.128 114.767C767.558 115.657 769.153 116.102 770.915 116.102C772.676 116.102 774.267 115.657 775.688 114.767C777.117 113.877 778.249 112.565 779.082 110.832C779.925 109.099 780.347 106.973 780.347 104.455ZM805.588 97.1818C805.418 95.7424 804.726 94.625 803.514 93.8295C802.302 93.0341 800.815 92.6364 799.054 92.6364C797.766 92.6364 796.639 92.8447 795.673 93.2614C794.717 93.678 793.969 94.2509 793.429 94.9801C792.899 95.7093 792.634 96.5379 792.634 97.4659C792.634 98.2424 792.818 98.91 793.188 99.4688C793.566 100.018 794.049 100.477 794.636 100.847C795.223 101.206 795.839 101.505 796.483 101.741C797.127 101.969 797.719 102.153 798.259 102.295L801.213 103.091C801.971 103.29 802.813 103.564 803.741 103.915C804.679 104.265 805.574 104.743 806.426 105.349C807.288 105.946 807.998 106.713 808.557 107.651C809.116 108.588 809.395 109.739 809.395 111.102C809.395 112.674 808.983 114.095 808.159 115.364C807.345 116.633 806.152 117.641 804.58 118.389C803.017 119.137 801.118 119.511 798.884 119.511C796.8 119.511 794.996 119.175 793.472 118.503C791.956 117.83 790.763 116.893 789.892 115.69C789.03 114.488 788.543 113.091 788.429 111.5H792.065C792.16 112.598 792.529 113.508 793.173 114.227C793.827 114.937 794.651 115.468 795.645 115.818C796.649 116.159 797.728 116.33 798.884 116.33C800.228 116.33 801.436 116.112 802.506 115.676C803.576 115.231 804.423 114.616 805.048 113.83C805.673 113.034 805.986 112.106 805.986 111.045C805.986 110.08 805.716 109.294 805.176 108.688C804.636 108.081 803.926 107.589 803.045 107.21C802.165 106.831 801.213 106.5 800.19 106.216L796.611 105.193C794.338 104.54 792.539 103.607 791.213 102.395C789.887 101.183 789.224 99.5966 789.224 97.6364C789.224 96.0076 789.665 94.5871 790.545 93.375C791.436 92.1534 792.629 91.2064 794.125 90.5341C795.631 89.8523 797.312 89.5114 799.168 89.5114C801.043 89.5114 802.709 89.8475 804.168 90.5199C805.626 91.1828 806.781 92.0919 807.634 93.2472C808.495 94.4025 808.95 95.714 808.997 97.1818H805.588ZM831.096 97.1818C830.925 95.7424 830.234 94.625 829.022 93.8295C827.81 93.0341 826.323 92.6364 824.562 92.6364C823.274 92.6364 822.147 92.8447 821.181 93.2614C820.225 93.678 819.477 94.2509 818.937 94.9801C818.406 95.7093 818.141 96.5379 818.141 97.4659C818.141 98.2424 818.326 98.91 818.695 99.4688C819.074 100.018 819.557 100.477 820.144 100.847C820.731 101.206 821.347 101.505 821.991 101.741C822.635 101.969 823.227 102.153 823.766 102.295L826.721 103.091C827.478 103.29 828.321 103.564 829.249 103.915C830.187 104.265 831.082 104.743 831.934 105.349C832.796 105.946 833.506 106.713 834.065 107.651C834.623 108.588 834.903 109.739 834.903 111.102C834.903 112.674 834.491 114.095 833.667 115.364C832.853 116.633 831.659 117.641 830.087 118.389C828.525 119.137 826.626 119.511 824.391 119.511C822.308 119.511 820.504 119.175 818.979 118.503C817.464 117.83 816.271 116.893 815.4 115.69C814.538 114.488 814.05 113.091 813.937 111.5H817.573C817.668 112.598 818.037 113.508 818.681 114.227C819.335 114.937 820.158 115.468 821.153 115.818C822.156 116.159 823.236 116.33 824.391 116.33C825.736 116.33 826.943 116.112 828.013 115.676C829.084 115.231 829.931 114.616 830.556 113.83C831.181 113.034 831.494 112.106 831.494 111.045C831.494 110.08 831.224 109.294 830.684 108.688C830.144 108.081 829.434 107.589 828.553 107.21C827.673 106.831 826.721 106.5 825.698 106.216L822.119 105.193C819.846 104.54 818.047 103.607 816.721 102.395C815.395 101.183 814.732 99.5966 814.732 97.6364C814.732 96.0076 815.173 94.5871 816.053 93.375C816.943 92.1534 818.137 91.2064 819.633 90.5341C821.138 89.8523 822.819 89.5114 824.675 89.5114C826.55 89.5114 828.217 89.8475 829.675 90.5199C831.134 91.1828 832.289 92.0919 833.141 93.2472C834.003 94.4025 834.458 95.714 834.505 97.1818H831.096ZM852.74 102.892V106.017H840.013V102.892H852.74ZM859.093 119V89.9091H869.263C871.29 89.9091 872.961 90.2595 874.278 90.9602C875.594 91.6515 876.574 92.5843 877.218 93.7585C877.862 94.9233 878.184 96.2159 878.184 97.6364C878.184 98.8864 877.961 99.9186 877.516 100.733C877.081 101.547 876.503 102.191 875.783 102.665C875.073 103.138 874.301 103.489 873.468 103.716V104C874.358 104.057 875.253 104.369 876.153 104.938C877.052 105.506 877.805 106.32 878.411 107.381C879.017 108.441 879.32 109.739 879.32 111.273C879.32 112.731 878.989 114.043 878.326 115.207C877.663 116.372 876.617 117.295 875.187 117.977C873.757 118.659 871.896 119 869.604 119H859.093ZM862.616 115.875H869.604C871.906 115.875 873.539 115.43 874.505 114.54C875.48 113.64 875.968 112.551 875.968 111.273C875.968 110.288 875.717 109.379 875.215 108.545C874.713 107.703 873.998 107.03 873.07 106.528C872.142 106.017 871.044 105.761 869.775 105.761H862.616V115.875ZM862.616 102.693H869.15C870.21 102.693 871.167 102.485 872.019 102.068C872.881 101.652 873.563 101.064 874.065 100.307C874.576 99.5492 874.832 98.6591 874.832 97.6364C874.832 96.358 874.387 95.2737 873.496 94.3835C872.606 93.4839 871.195 93.0341 869.263 93.0341H862.616V102.693ZM909.654 104.455C909.654 107.523 909.1 110.174 907.992 112.409C906.884 114.644 905.364 116.367 903.433 117.58C901.501 118.792 899.294 119.398 896.813 119.398C894.332 119.398 892.126 118.792 890.194 117.58C888.262 116.367 886.742 114.644 885.634 112.409C884.526 110.174 883.972 107.523 883.972 104.455C883.972 101.386 884.526 98.7348 885.634 96.5C886.742 94.2652 888.262 92.5417 890.194 91.3295C892.126 90.1174 894.332 89.5114 896.813 89.5114C899.294 89.5114 901.501 90.1174 903.433 91.3295C905.364 92.5417 906.884 94.2652 907.992 96.5C909.1 98.7348 909.654 101.386 909.654 104.455ZM906.245 104.455C906.245 101.936 905.824 99.8097 904.981 98.0767C904.147 96.3438 903.016 95.0322 901.586 94.142C900.165 93.2519 898.575 92.8068 896.813 92.8068C895.052 92.8068 893.456 93.2519 892.026 94.142C890.606 95.0322 889.474 96.3438 888.631 98.0767C887.798 99.8097 887.381 101.936 887.381 104.455C887.381 106.973 887.798 109.099 888.631 110.832C889.474 112.565 890.606 113.877 892.026 114.767C893.456 115.657 895.052 116.102 896.813 116.102C898.575 116.102 900.165 115.657 901.586 114.767C903.016 113.877 904.147 112.565 904.981 110.832C905.824 109.099 906.245 106.973 906.245 104.455ZM915.577 119V89.9091H925.407C927.68 89.9091 929.545 90.2973 931.004 91.0739C932.462 91.8409 933.541 92.8968 934.242 94.2415C934.943 95.5862 935.293 97.1155 935.293 98.8295C935.293 100.544 934.943 102.063 934.242 103.389C933.541 104.715 932.467 105.757 931.018 106.514C929.569 107.262 927.718 107.636 925.464 107.636H917.509V104.455H925.35C926.903 104.455 928.153 104.227 929.1 103.773C930.057 103.318 930.748 102.674 931.174 101.841C931.61 100.998 931.827 99.9943 931.827 98.8295C931.827 97.6648 931.61 96.6468 931.174 95.7756C930.738 94.9044 930.042 94.232 929.086 93.7585C928.129 93.2756 926.865 93.0341 925.293 93.0341H919.1V119H915.577ZM929.271 105.932L936.43 119H932.339L925.293 105.932H929.271ZM950.141 119H941.163V89.9091H950.538C953.36 89.9091 955.775 90.4915 957.783 91.6562C959.79 92.8116 961.329 94.4735 962.399 96.642C963.469 98.8011 964.004 101.386 964.004 104.398C964.004 107.428 963.464 110.037 962.385 112.224C961.305 114.402 959.733 116.079 957.669 117.253C955.605 118.418 953.095 119 950.141 119ZM944.686 115.875H949.913C952.319 115.875 954.312 115.411 955.893 114.483C957.475 113.555 958.654 112.234 959.43 110.52C960.207 108.806 960.595 106.765 960.595 104.398C960.595 102.049 960.212 100.027 959.445 98.3324C958.678 96.6278 957.532 95.321 956.007 94.4119C954.482 93.4934 952.584 93.0341 950.311 93.0341H944.686V115.875ZM969.913 119V89.9091H987.47V93.0341H973.436V102.864H986.561V105.989H973.436V115.875H987.697V119H969.913ZM993.82 119V89.9091H1003.65C1005.92 89.9091 1007.79 90.2973 1009.25 91.0739C1010.7 91.8409 1011.78 92.8968 1012.48 94.2415C1013.19 95.5862 1013.54 97.1155 1013.54 98.8295C1013.54 100.544 1013.19 102.063 1012.48 103.389C1011.78 104.715 1010.71 105.757 1009.26 106.514C1007.81 107.262 1005.96 107.636 1003.71 107.636H995.751V104.455H1003.59C1005.15 104.455 1006.4 104.227 1007.34 103.773C1008.3 103.318 1008.99 102.674 1009.42 101.841C1009.85 100.998 1010.07 99.9943 1010.07 98.8295C1010.07 97.6648 1009.85 96.6468 1009.42 95.7756C1008.98 94.9044 1008.28 94.232 1007.33 93.7585C1006.37 93.2756 1005.11 93.0341 1003.54 93.0341H997.342V119H993.82ZM1007.51 105.932L1014.67 119H1010.58L1003.54 105.932H1007.51ZM704.523 167V137.909H722.08V141.034H708.045V150.864H721.17V153.989H708.045V163.875H722.307V167H704.523ZM740.474 150.892V154.017H727.747V150.892H740.474ZM770.237 147H766.714C766.505 145.987 766.141 145.097 765.62 144.33C765.109 143.562 764.484 142.919 763.745 142.398C763.016 141.867 762.206 141.47 761.316 141.205C760.426 140.939 759.498 140.807 758.532 140.807C756.771 140.807 755.175 141.252 753.745 142.142C752.325 143.032 751.193 144.344 750.35 146.077C749.517 147.81 749.1 149.936 749.1 152.455C749.1 154.973 749.517 157.099 750.35 158.832C751.193 160.565 752.325 161.877 753.745 162.767C755.175 163.657 756.771 164.102 758.532 164.102C759.498 164.102 760.426 163.97 761.316 163.705C762.206 163.439 763.016 163.046 763.745 162.526C764.484 161.995 765.109 161.347 765.62 160.58C766.141 159.803 766.505 158.913 766.714 157.909H770.237C769.971 159.396 769.488 160.726 768.788 161.901C768.087 163.075 767.216 164.074 766.174 164.898C765.132 165.712 763.963 166.332 762.665 166.759C761.378 167.185 760 167.398 758.532 167.398C756.051 167.398 753.844 166.792 751.913 165.58C749.981 164.367 748.461 162.644 747.353 160.409C746.245 158.174 745.691 155.523 745.691 152.455C745.691 149.386 746.245 146.735 747.353 144.5C748.461 142.265 749.981 140.542 751.913 139.33C753.844 138.117 756.051 137.511 758.532 137.511C760 137.511 761.378 137.724 762.665 138.151C763.963 138.577 765.132 139.202 766.174 140.026C767.216 140.84 768.087 141.834 768.788 143.009C769.488 144.173 769.971 145.504 770.237 147ZM800.474 152.455C800.474 155.523 799.92 158.174 798.812 160.409C797.705 162.644 796.185 164.367 794.253 165.58C792.321 166.792 790.115 167.398 787.634 167.398C785.152 167.398 782.946 166.792 781.014 165.58C779.082 164.367 777.563 162.644 776.455 160.409C775.347 158.174 774.793 155.523 774.793 152.455C774.793 149.386 775.347 146.735 776.455 144.5C777.563 142.265 779.082 140.542 781.014 139.33C782.946 138.117 785.152 137.511 787.634 137.511C790.115 137.511 792.321 138.117 794.253 139.33C796.185 140.542 797.705 142.265 798.812 144.5C799.92 146.735 800.474 149.386 800.474 152.455ZM797.065 152.455C797.065 149.936 796.644 147.81 795.801 146.077C794.968 144.344 793.836 143.032 792.406 142.142C790.986 141.252 789.395 140.807 787.634 140.807C785.872 140.807 784.277 141.252 782.847 142.142C781.426 143.032 780.295 144.344 779.452 146.077C778.618 147.81 778.202 149.936 778.202 152.455C778.202 154.973 778.618 157.099 779.452 158.832C780.295 160.565 781.426 161.877 782.847 162.767C784.277 163.657 785.872 164.102 787.634 164.102C789.395 164.102 790.986 163.657 792.406 162.767C793.836 161.877 794.968 160.565 795.801 158.832C796.644 157.099 797.065 154.973 797.065 152.455ZM806.398 137.909H810.602L820.489 162.057H820.83L830.716 137.909H834.92V167H831.625V144.898H831.341L822.25 167H819.068L809.977 144.898H809.693V167H806.398V137.909ZM841.984 137.909H846.188L856.075 162.057H856.415L866.302 137.909H870.506V167H867.211V144.898H866.927L857.836 167H854.654L845.563 144.898H845.279V167H841.984V137.909ZM877.57 167V137.909H895.126V141.034H881.092V150.864H894.217V153.989H881.092V163.875H895.354V167H877.57ZM901.476 167V137.909H911.305C913.578 137.909 915.444 138.297 916.902 139.074C918.36 139.841 919.44 140.897 920.141 142.241C920.841 143.586 921.192 145.116 921.192 146.83C921.192 148.544 920.841 150.063 920.141 151.389C919.44 152.715 918.365 153.757 916.916 154.514C915.467 155.262 913.616 155.636 911.362 155.636H903.408V152.455H911.249C912.802 152.455 914.052 152.227 914.999 151.773C915.955 151.318 916.646 150.674 917.072 149.841C917.508 148.998 917.726 147.994 917.726 146.83C917.726 145.665 917.508 144.647 917.072 143.776C916.637 142.904 915.941 142.232 914.984 141.759C914.028 141.276 912.764 141.034 911.192 141.034H904.999V167H901.476ZM915.169 153.932L922.328 167H918.237L911.192 153.932H915.169ZM950.471 147H946.948C946.74 145.987 946.375 145.097 945.854 144.33C945.343 143.562 944.718 142.919 943.979 142.398C943.25 141.867 942.441 141.47 941.55 141.205C940.66 140.939 939.732 140.807 938.766 140.807C937.005 140.807 935.409 141.252 933.979 142.142C932.559 143.032 931.427 144.344 930.585 146.077C929.751 147.81 929.335 149.936 929.335 152.455C929.335 154.973 929.751 157.099 930.585 158.832C931.427 160.565 932.559 161.877 933.979 162.767C935.409 163.657 937.005 164.102 938.766 164.102C939.732 164.102 940.66 163.97 941.55 163.705C942.441 163.439 943.25 163.046 943.979 162.526C944.718 161.995 945.343 161.347 945.854 160.58C946.375 159.803 946.74 158.913 946.948 157.909H950.471C950.206 159.396 949.723 160.726 949.022 161.901C948.321 163.075 947.45 164.074 946.408 164.898C945.367 165.712 944.197 166.332 942.9 166.759C941.612 167.185 940.234 167.398 938.766 167.398C936.285 167.398 934.079 166.792 932.147 165.58C930.215 164.367 928.695 162.644 927.587 160.409C926.479 158.174 925.925 155.523 925.925 152.455C925.925 149.386 926.479 146.735 927.587 144.5C928.695 142.265 930.215 140.542 932.147 139.33C934.079 138.117 936.285 137.511 938.766 137.511C940.234 137.511 941.612 137.724 942.9 138.151C944.197 138.577 945.367 139.202 946.408 140.026C947.45 140.84 948.321 141.834 949.022 143.009C949.723 144.173 950.206 145.504 950.471 147ZM956.163 167V137.909H973.72V141.034H959.686V150.864H972.811V153.989H959.686V163.875H973.947V167H956.163ZM720.432 193.182C720.261 191.742 719.57 190.625 718.358 189.83C717.146 189.034 715.659 188.636 713.898 188.636C712.61 188.636 711.483 188.845 710.517 189.261C709.561 189.678 708.813 190.251 708.273 190.98C707.742 191.709 707.477 192.538 707.477 193.466C707.477 194.242 707.662 194.91 708.031 195.469C708.41 196.018 708.893 196.477 709.48 196.847C710.067 197.206 710.683 197.505 711.327 197.741C711.971 197.969 712.562 198.153 713.102 198.295L716.057 199.091C716.814 199.29 717.657 199.564 718.585 199.915C719.523 200.265 720.418 200.743 721.27 201.349C722.132 201.946 722.842 202.713 723.401 203.651C723.959 204.588 724.239 205.739 724.239 207.102C724.239 208.674 723.827 210.095 723.003 211.364C722.188 212.633 720.995 213.641 719.423 214.389C717.861 215.137 715.962 215.511 713.727 215.511C711.644 215.511 709.84 215.175 708.315 214.503C706.8 213.83 705.607 212.893 704.736 211.69C703.874 210.488 703.386 209.091 703.273 207.5H706.909C707.004 208.598 707.373 209.508 708.017 210.227C708.67 210.937 709.494 211.468 710.489 211.818C711.492 212.159 712.572 212.33 713.727 212.33C715.072 212.33 716.279 212.112 717.349 211.676C718.42 211.231 719.267 210.616 719.892 209.83C720.517 209.034 720.83 208.106 720.83 207.045C720.83 206.08 720.56 205.294 720.02 204.688C719.48 204.081 718.77 203.589 717.889 203.21C717.009 202.831 716.057 202.5 715.034 202.216L711.455 201.193C709.182 200.54 707.383 199.607 706.057 198.395C704.731 197.183 704.068 195.597 704.068 193.636C704.068 192.008 704.509 190.587 705.389 189.375C706.279 188.153 707.473 187.206 708.969 186.534C710.474 185.852 712.155 185.511 714.011 185.511C715.886 185.511 717.553 185.848 719.011 186.52C720.47 187.183 721.625 188.092 722.477 189.247C723.339 190.402 723.794 191.714 723.841 193.182H720.432ZM749.121 185.909H752.644V205.17C752.644 207.159 752.175 208.935 751.238 210.497C750.31 212.05 748.998 213.277 747.303 214.176C745.608 215.066 743.62 215.511 741.337 215.511C739.055 215.511 737.067 215.066 735.371 214.176C733.676 213.277 732.36 212.05 731.423 210.497C730.495 208.935 730.031 207.159 730.031 205.17V185.909H733.553V204.886C733.553 206.307 733.866 207.571 734.491 208.679C735.116 209.777 736.006 210.644 737.161 211.278C738.326 211.903 739.718 212.216 741.337 212.216C742.957 212.216 744.349 211.903 745.513 211.278C746.678 210.644 747.568 209.777 748.184 208.679C748.809 207.571 749.121 206.307 749.121 204.886V185.909ZM759.679 185.909H763.884L773.77 210.057H774.111L783.997 185.909H788.202V215H784.906V192.898H784.622L775.531 215H772.349L763.259 192.898H762.974V215H759.679V185.909ZM795.265 185.909H799.469L809.356 210.057H809.697L819.583 185.909H823.788V215H820.492V192.898H820.208L811.117 215H807.935L798.844 192.898H798.56V215H795.265V185.909ZM834.374 185.909V215H830.851V185.909H834.374ZM839.846 189.034V185.909H861.664V189.034H852.516V215H848.994V189.034H839.846Z" fill="#ECECEC" style="fill:#ECECEC;fill:color(display-p3 0.9258 0.9258 0.9258);fill-opacity:1;"/>
<line x1="668.5" y1="5" x2="668.5" y2="251" stroke="#ECECEC" style="stroke:#ECECEC;stroke:color(display-p3 0.9258 0.9258 0.9258);stroke-opacity:1;" stroke-width="3"/>
<defs>
<clipPath id="clip0_29_2">
<rect width="221" height="221" fill="white" style="fill:white;fill-opacity:1;" transform="translate(0 17.5)"/>
</clipPath>
</defs>
</svg>
