<svg width="646" height="256" viewBox="0 0 646 256" fill="none" xmlns="http://www.w3.org/2000/svg">
<g clip-path="url(#clip0_35_13)">
<path d="M20.9904 63.1922C10.3372 77.8804 3.21093 95.2932 0.854858 114.188H220.145C217.789 95.2931 210.663 77.8802 200.009 63.1919C199.435 63.5136 198.852 63.8354 198.262 64.1572C177.745 75.3481 147.856 86.5625 110.5 86.5625C73.1437 86.5625 43.2537 75.3481 22.7369 64.1572C22.1472 63.8356 21.565 63.5137 20.9904 63.1922Z" fill="white" style="fill:white;fill-opacity:1;"/>
<path d="M180.339 42.364C163.145 51.0019 139.472 58.9375 110.5 58.9375C81.5278 58.9375 57.8551 51.0021 40.6606 42.3643C59.6955 26.8219 84.0091 17.5 110.5 17.5C136.991 17.5 161.304 26.8218 180.339 42.364Z" fill="white" style="fill:white;fill-opacity:1;"/>
<path d="M0.854858 141.812C3.21094 160.707 10.3373 178.12 20.9906 192.808C21.5652 192.486 22.1475 192.165 22.7373 191.843C43.2541 180.652 73.1441 169.438 110.5 169.438C147.856 169.438 177.746 180.652 198.262 191.843C198.853 192.165 199.435 192.486 200.009 192.808C210.663 178.12 217.789 160.707 220.145 141.812H0.854858Z" fill="white" style="fill:white;fill-opacity:1;"/>
<path d="M110.5 238.5C84.0092 238.5 59.6956 229.178 40.6608 213.636C57.8553 204.998 81.5281 197.062 110.5 197.062C139.472 197.062 163.145 204.998 180.339 213.636C161.304 229.178 136.991 238.5 110.5 238.5Z" fill="white" style="fill:white;fill-opacity:1;"/>
</g>
<path d="M321.812 68.9375V105.625C320.312 107.333 318.021 109.167 314.938 111.125C311.896 113.083 308 114.771 303.25 116.188C298.5 117.562 292.833 118.25 286.25 118.25C280.292 118.25 274.875 117.292 270 115.375C265.125 113.417 260.938 110.562 257.438 106.812C253.938 103.021 251.229 98.3958 249.312 92.9375C247.438 87.4792 246.5 81.2292 246.5 74.1875V68.8125C246.5 61.7708 247.438 55.5208 249.312 50.0625C251.188 44.6042 253.833 40 257.25 36.25C260.667 32.4583 264.729 29.5833 269.438 27.625C274.146 25.6667 279.354 24.6875 285.062 24.6875C293.188 24.6875 299.833 26 305 28.625C310.167 31.2083 314.083 34.7917 316.75 39.375C319.458 43.9583 321.125 49.2292 321.75 55.1875H302.125C301.708 52.1458 300.875 49.5208 299.625 47.3125C298.417 45.1042 296.688 43.4167 294.438 42.25C292.188 41.0417 289.271 40.4375 285.688 40.4375C282.812 40.4375 280.208 41.0417 277.875 42.25C275.583 43.4167 273.646 45.1875 272.062 47.5625C270.479 49.9375 269.271 52.8958 268.438 56.4375C267.604 59.9375 267.188 64.0208 267.188 68.6875V74.1875C267.188 78.8542 267.604 82.9583 268.438 86.5C269.312 90.0417 270.583 93 272.25 95.375C273.917 97.7083 276.021 99.4792 278.562 100.688C281.146 101.896 284.146 102.5 287.562 102.5C290.229 102.5 292.479 102.292 294.312 101.875C296.146 101.417 297.646 100.854 298.812 100.188C299.979 99.4792 300.854 98.8333 301.438 98.25V83.125H285.25V68.9375H321.812ZM388.062 86.5H408.312C407.979 92.75 406.271 98.2708 403.188 103.062C400.146 107.812 395.917 111.542 390.5 114.25C385.083 116.917 378.646 118.25 371.188 118.25C365.229 118.25 359.896 117.229 355.188 115.188C350.479 113.146 346.479 110.229 343.188 106.438C339.938 102.604 337.438 98 335.688 92.625C333.979 87.2083 333.125 81.1042 333.125 74.3125V68.75C333.125 61.9583 334.021 55.8542 335.812 50.4375C337.604 45.0208 340.167 40.3958 343.5 36.5625C346.833 32.7292 350.833 29.7917 355.5 27.75C360.167 25.7083 365.375 24.6875 371.125 24.6875C378.875 24.6875 385.417 26.0833 390.75 28.875C396.083 31.6667 400.208 35.5 403.125 40.375C406.083 45.25 407.854 50.8125 408.438 57.0625H388.125C387.958 53.5208 387.292 50.5417 386.125 48.125C384.958 45.6667 383.167 43.8125 380.75 42.5625C378.333 41.3125 375.125 40.6875 371.125 40.6875C368.208 40.6875 365.646 41.2292 363.438 42.3125C361.271 43.3958 359.458 45.0833 358 47.375C356.583 49.6667 355.521 52.5833 354.812 56.125C354.104 59.625 353.75 63.7917 353.75 68.625V74.3125C353.75 79.1042 354.062 83.25 354.688 86.75C355.312 90.25 356.312 93.1458 357.688 95.4375C359.104 97.7292 360.917 99.4375 363.125 100.562C365.333 101.688 368.021 102.25 371.188 102.25C374.812 102.25 377.833 101.688 380.25 100.562C382.667 99.3958 384.521 97.6458 385.812 95.3125C387.104 92.9792 387.854 90.0417 388.062 86.5ZM456 77.6875H432.625L432.5 64.0625H451.812C455.229 64.0625 458 63.6458 460.125 62.8125C462.292 61.9792 463.875 60.7708 464.875 59.1875C465.875 57.5625 466.375 55.5625 466.375 53.1875C466.375 50.4792 465.875 48.2917 464.875 46.625C463.875 44.9583 462.292 43.75 460.125 43C458 42.2083 455.25 41.8125 451.875 41.8125H440V117H419.625V26H451.875C457.333 26 462.208 26.5 466.5 27.5C470.792 28.5 474.438 30.0417 477.438 32.125C480.479 34.2083 482.792 36.8125 484.375 39.9375C485.958 43.0625 486.75 46.75 486.75 51C486.75 54.7083 485.917 58.1667 484.25 61.375C482.625 64.5833 480 67.1875 476.375 69.1875C472.75 71.1875 467.896 72.2708 461.812 72.4375L456 77.6875ZM455.188 117H427.438L434.812 101.25H455.188C458.312 101.25 460.854 100.75 462.812 99.75C464.771 98.75 466.208 97.3958 467.125 95.6875C468.042 93.9792 468.5 92.0625 468.5 89.9375C468.5 87.4375 468.062 85.2708 467.188 83.4375C466.354 81.6042 465.021 80.1875 463.188 79.1875C461.396 78.1875 459 77.6875 456 77.6875H437.75L437.875 64.0625H460.188L464.938 69.4375C470.729 69.3125 475.354 70.25 478.812 72.25C482.312 74.2083 484.833 76.7917 486.375 80C487.917 83.2083 488.688 86.6042 488.688 90.1875C488.688 96.1042 487.417 101.062 484.875 105.062C482.333 109.021 478.562 112 473.562 114C468.604 116 462.479 117 455.188 117ZM563.75 101.25V117H515.312V101.25H563.75ZM522.25 26V117H501.875V26H522.25ZM557.5 62.625V77.875H515.312V62.625H557.5ZM563.812 26V41.8125H515.312V26H563.812ZM620.938 93C620.938 91.4583 620.708 90.0833 620.25 88.875C619.792 87.625 618.958 86.4792 617.75 85.4375C616.542 84.3958 614.833 83.3542 612.625 82.3125C610.417 81.2292 607.521 80.125 603.938 79C599.854 77.6667 595.958 76.1667 592.25 74.5C588.583 72.7917 585.312 70.8125 582.438 68.5625C579.562 66.3125 577.292 63.6875 575.625 60.6875C574 57.6875 573.188 54.1875 573.188 50.1875C573.188 46.3125 574.042 42.8125 575.75 39.6875C577.458 36.5625 579.854 33.8958 582.938 31.6875C586.021 29.4375 589.646 27.7292 593.812 26.5625C597.979 25.3542 602.562 24.75 607.562 24.75C614.229 24.75 620.083 25.9375 625.125 28.3125C630.208 30.6458 634.167 33.9375 637 38.1875C639.833 42.3958 641.25 47.2917 641.25 52.875H621C621 50.4167 620.479 48.25 619.438 46.375C618.438 44.4583 616.896 42.9583 614.812 41.875C612.771 40.7917 610.208 40.25 607.125 40.25C604.125 40.25 601.604 40.7083 599.562 41.625C597.562 42.5 596.042 43.7083 595 45.25C594 46.7917 593.5 48.4792 593.5 50.3125C593.5 51.7708 593.875 53.1042 594.625 54.3125C595.417 55.4792 596.542 56.5833 598 57.625C599.5 58.625 601.333 59.5833 603.5 60.5C605.667 61.4167 608.146 62.2917 610.938 63.125C615.812 64.6667 620.125 66.375 623.875 68.25C627.667 70.125 630.854 72.25 633.438 74.625C636.021 77 637.958 79.6875 639.25 82.6875C640.583 85.6875 641.25 89.0833 641.25 92.875C641.25 96.9167 640.458 100.5 638.875 103.625C637.333 106.75 635.083 109.417 632.125 111.625C629.208 113.792 625.708 115.438 621.625 116.562C617.542 117.688 612.979 118.25 607.938 118.25C603.354 118.25 598.833 117.667 594.375 116.5C589.917 115.292 585.875 113.458 582.25 111C578.667 108.542 575.792 105.417 573.625 101.625C571.5 97.7917 570.438 93.25 570.438 88H590.812C590.812 90.75 591.208 93.0833 592 95C592.792 96.875 593.917 98.3958 595.375 99.5625C596.875 100.729 598.688 101.562 600.812 102.062C602.938 102.562 605.312 102.812 607.938 102.812C610.979 102.812 613.438 102.396 615.312 101.562C617.229 100.688 618.646 99.5 619.562 98C620.479 96.5 620.938 94.8333 620.938 93Z" fill="white" style="fill:white;fill-opacity:1;"/>
<path d="M309.812 219.812V235H246.938V222.125L276.312 191C279.062 187.833 281.25 185.042 282.875 182.625C284.542 180.208 285.75 178.021 286.5 176.062C287.25 174.062 287.625 172.229 287.625 170.562C287.625 167.854 287.188 165.562 286.312 163.688C285.479 161.812 284.25 160.375 282.625 159.375C281 158.375 279.021 157.875 276.688 157.875C274.188 157.875 272.042 158.521 270.25 159.812C268.458 161.104 267.083 162.896 266.125 165.188C265.167 167.438 264.688 170 264.688 172.875H245.062C245.062 167.333 246.396 162.292 249.062 157.75C251.729 153.167 255.458 149.521 260.25 146.812C265.042 144.062 270.646 142.688 277.062 142.688C283.646 142.688 289.167 143.729 293.625 145.812C298.083 147.896 301.458 150.875 303.75 154.75C306.042 158.625 307.188 163.292 307.188 168.75C307.188 171.833 306.688 174.812 305.688 177.688C304.729 180.562 303.333 183.417 301.5 186.25C299.667 189.083 297.458 191.979 294.875 194.938C292.292 197.854 289.375 200.938 286.125 204.188L272.375 219.812H309.812ZM383 181.375V197.562C383 204.229 382.25 210 380.75 214.875C379.292 219.75 377.167 223.771 374.375 226.938C371.625 230.104 368.333 232.458 364.5 234C360.708 235.5 356.5 236.25 351.875 236.25C348.167 236.25 344.708 235.771 341.5 234.812C338.292 233.854 335.396 232.375 332.812 230.375C330.271 228.333 328.083 225.792 326.25 222.75C324.417 219.708 323 216.083 322 211.875C321.042 207.667 320.562 202.896 320.562 197.562V181.375C320.562 174.625 321.292 168.833 322.75 164C324.25 159.167 326.396 155.167 329.188 152C331.979 148.833 335.271 146.5 339.062 145C342.896 143.5 347.125 142.75 351.75 142.75C355.458 142.75 358.896 143.229 362.062 144.188C365.271 145.146 368.167 146.625 370.75 148.625C373.333 150.625 375.521 153.146 377.312 156.188C379.146 159.229 380.542 162.854 381.5 167.062C382.5 171.229 383 176 383 181.375ZM363.5 200V178.812C363.5 175.688 363.312 172.979 362.938 170.688C362.604 168.354 362.104 166.375 361.438 164.75C360.812 163.125 360.021 161.812 359.062 160.812C358.104 159.812 357 159.083 355.75 158.625C354.542 158.125 353.208 157.875 351.75 157.875C349.917 157.875 348.271 158.25 346.812 159C345.354 159.75 344.125 160.938 343.125 162.562C342.125 164.146 341.354 166.292 340.812 169C340.312 171.667 340.062 174.938 340.062 178.812V200C340.062 203.125 340.229 205.854 340.562 208.188C340.938 210.521 341.438 212.521 342.062 214.188C342.729 215.812 343.542 217.146 344.5 218.188C345.458 219.188 346.562 219.917 347.812 220.375C349.062 220.833 350.417 221.062 351.875 221.062C353.708 221.062 355.333 220.708 356.75 220C358.167 219.25 359.375 218.062 360.375 216.438C361.417 214.771 362.188 212.583 362.688 209.875C363.229 207.167 363.5 203.875 363.5 200ZM457.562 219.812V235H394.688V222.125L424.062 191C426.812 187.833 429 185.042 430.625 182.625C432.292 180.208 433.5 178.021 434.25 176.062C435 174.062 435.375 172.229 435.375 170.562C435.375 167.854 434.938 165.562 434.062 163.688C433.229 161.812 432 160.375 430.375 159.375C428.75 158.375 426.771 157.875 424.438 157.875C421.938 157.875 419.792 158.521 418 159.812C416.208 161.104 414.833 162.896 413.875 165.188C412.917 167.438 412.438 170 412.438 172.875H392.812C392.812 167.333 394.146 162.292 396.812 157.75C399.479 153.167 403.208 149.521 408 146.812C412.792 144.062 418.396 142.688 424.812 142.688C431.396 142.688 436.917 143.729 441.375 145.812C445.833 147.896 449.208 150.875 451.5 154.75C453.792 158.625 454.938 163.292 454.938 168.75C454.938 171.833 454.438 174.812 453.438 177.688C452.479 180.562 451.083 183.417 449.25 186.25C447.417 189.083 445.208 191.979 442.625 194.938C440.042 197.854 437.125 200.938 433.875 204.188L420.125 219.812H457.562ZM486 194L470.5 190.312L475.812 144H527.938V159.438H491.812L489.625 178.625C490.75 177.958 492.521 177.229 494.938 176.438C497.354 175.604 500.062 175.188 503.062 175.188C507.521 175.188 511.479 175.875 514.938 177.25C518.396 178.625 521.312 180.625 523.688 183.25C526.104 185.833 527.917 189.021 529.125 192.812C530.375 196.604 531 200.917 531 205.75C531 209.75 530.375 213.583 529.125 217.25C527.875 220.875 525.958 224.125 523.375 227C520.833 229.833 517.604 232.083 513.688 233.75C509.771 235.417 505.167 236.25 499.875 236.25C495.875 236.25 492 235.646 488.25 234.438C484.5 233.229 481.125 231.479 478.125 229.188C475.167 226.854 472.812 224.021 471.062 220.688C469.354 217.354 468.479 213.604 468.438 209.438H487.938C488.146 211.854 488.75 213.938 489.75 215.688C490.75 217.396 492.104 218.729 493.812 219.688C495.521 220.604 497.5 221.062 499.75 221.062C501.917 221.062 503.75 220.646 505.25 219.812C506.75 218.938 507.938 217.75 508.812 216.25C509.729 214.75 510.396 213 510.812 211C511.229 209 511.438 206.854 511.438 204.562C511.438 202.188 511.167 200.062 510.625 198.188C510.083 196.271 509.25 194.646 508.125 193.312C507 191.938 505.562 190.896 503.812 190.188C502.104 189.438 500.042 189.062 497.625 189.062C494.458 189.062 491.979 189.583 490.188 190.625C488.396 191.667 487 192.792 486 194Z" fill="white" style="fill:white;fill-opacity:1;"/>
<defs>
<clipPath id="clip0_35_13">
<rect width="221" height="221" fill="white" style="fill:white;fill-opacity:1;" transform="translate(0 17.5)"/>
</clipPath>
</defs>
</svg>
